<svg width="24" height="24" viewBox="0 0 24 24" fill="none" xmlns="http://www.w3.org/2000/svg">
<path fill-rule="evenodd" clip-rule="evenodd" d="M15.5773 13.6336C16.2391 12.1833 15.9733 10.4135 14.7798 9.22001C13.5863 8.02653 11.8165 7.76067 10.3662 8.42245L11.5532 9.60943C12.3145 9.46803 13.1302 9.69178 13.7191 10.2806C14.308 10.8695 14.5318 11.6853 14.3904 12.4466L15.5773 13.6336Z" fill="#141A21"/>
<path fill-rule="evenodd" clip-rule="evenodd" d="M5.86351 7.80781C5.60455 8.02054 5.35905 8.23562 5.1281 8.44832C4.28021 9.22922 3.59635 10.0078 3.12452 10.5906C2.88813 10.8825 2.70377 11.1268 2.57745 11.2997C2.51426 11.3862 2.46551 11.4549 2.43196 11.5029C2.41518 11.5269 2.40219 11.5457 2.39309 11.559L2.38236 11.5747L2.3792 11.5794L2.37818 11.5809L2.09668 12L2.37753 12.4181L2.37818 12.4191L2.3792 12.4206L2.38236 12.4253L2.39309 12.441C2.40219 12.4543 2.41518 12.4731 2.43196 12.4971C2.46551 12.5451 2.51426 12.6138 2.57745 12.7003C2.70377 12.8732 2.88813 13.1175 3.12452 13.4094C3.59635 13.9922 4.28021 14.7708 5.1281 15.5517C6.79708 17.0888 9.22595 18.75 12.0001 18.75C13.3695 18.75 14.6548 18.3452 15.8061 17.7504L14.6833 16.6277C13.829 17.0123 12.9257 17.25 12.0001 17.25C9.80378 17.25 7.73266 15.9112 6.14428 14.4483C5.36349 13.7292 4.72933 13.0078 4.29031 12.4656C4.14693 12.2885 4.02487 12.1311 3.92584 12C4.02487 11.8689 4.14693 11.7115 4.29031 11.5344C4.72933 10.9922 5.36349 10.2708 6.14428 9.55168C6.39459 9.32114 6.65689 9.09369 6.92977 8.87408L5.86351 7.80781ZM17.0706 15.1258C17.3435 14.9063 17.6057 14.6788 17.856 14.4483C18.6368 13.7292 19.2709 13.0078 19.71 12.4656C19.8533 12.2885 19.9754 12.1311 20.0744 12C19.9754 11.8689 19.8533 11.7115 19.71 11.5344C19.2709 10.9922 18.6368 10.2708 17.856 9.55168C16.2676 8.08879 14.1965 6.75 12.0001 6.75C11.0746 6.75 10.1713 6.98772 9.31706 7.37228L8.19432 6.24954C9.34556 5.65475 10.6308 5.25 12.0001 5.25C14.7743 5.25 17.2032 6.91121 18.8722 8.44832C19.7201 9.22922 20.4039 10.0078 20.8758 10.5906C21.1121 10.8825 21.2965 11.1268 21.4228 11.2997C21.486 11.3862 21.5348 11.4549 21.5683 11.5029C21.5851 11.5269 21.5981 11.5457 21.6072 11.559L21.6179 11.5747L21.6211 11.5794L21.6221 11.5809L21.9036 12L21.6225 12.4186L21.6211 12.4206L21.6179 12.4253L21.6072 12.441C21.5981 12.4543 21.5851 12.4731 21.5683 12.4971C21.5348 12.5451 21.486 12.6138 21.4228 12.7003C21.2965 12.8732 21.1121 13.1175 20.8758 13.4094C20.4039 13.9922 19.7201 14.7708 18.8722 15.5517C18.6413 15.7644 18.3958 15.9794 18.1369 16.1921L17.0706 15.1258Z" fill="#141A21"/>
<path fill-rule="evenodd" clip-rule="evenodd" d="M18.75 19.8107L3.75 4.81066L4.81066 3.75L19.8107 18.75L18.75 19.8107Z" fill="#141A21"/>
</svg>
