<svg width="40" height="40" viewBox="0 0 40 40" fill="none" xmlns="http://www.w3.org/2000/svg">
<circle cx="20" cy="20" r="20" fill="#F6EFFF"/>
<path fill-rule="evenodd" clip-rule="evenodd" d="M21.8333 15.4167C21.8333 14.4056 21.011 13.5833 19.9999 13.5833C18.9888 13.5833 18.1666 14.4056 18.1666 15.4167C18.1666 16.4278 18.9888 17.25 19.9999 17.25C21.011 17.25 21.8333 16.4278 21.8333 15.4167ZM23.6666 15.4167C23.6666 17.4388 22.0221 19.0833 19.9999 19.0833C17.9778 19.0833 16.3333 17.4388 16.3333 15.4167C16.3333 13.3945 17.9778 11.75 19.9999 11.75C22.0221 11.75 23.6666 13.3945 23.6666 15.4167ZM13.5833 27.3333C13.5833 23.795 16.4625 20.9167 19.9999 20.9167C23.5373 20.9167 26.4166 23.795 26.4166 27.3333C26.4166 27.8393 26.0068 28.25 25.4999 28.25C24.993 28.25 24.5833 27.8393 24.5833 27.3333C24.5833 24.8061 22.5272 22.75 19.9999 22.75C17.4727 22.75 15.4166 24.8061 15.4166 27.3333C15.4166 27.8393 15.0068 28.25 14.4999 28.25C13.993 28.25 13.5833 27.8393 13.5833 27.3333Z" fill="#8E33FF"/>
<mask id="mask0_63_5266" style="mask-type:luminance" maskUnits="userSpaceOnUse" x="13" y="11" width="14" height="18">
<path fill-rule="evenodd" clip-rule="evenodd" d="M21.8333 15.4167C21.8333 14.4056 21.011 13.5833 19.9999 13.5833C18.9888 13.5833 18.1666 14.4056 18.1666 15.4167C18.1666 16.4278 18.9888 17.25 19.9999 17.25C21.011 17.25 21.8333 16.4278 21.8333 15.4167ZM23.6666 15.4167C23.6666 17.4388 22.0221 19.0833 19.9999 19.0833C17.9778 19.0833 16.3333 17.4388 16.3333 15.4167C16.3333 13.3945 17.9778 11.75 19.9999 11.75C22.0221 11.75 23.6666 13.3945 23.6666 15.4167ZM13.5833 27.3333C13.5833 23.795 16.4625 20.9167 19.9999 20.9167C23.5373 20.9167 26.4166 23.795 26.4166 27.3333C26.4166 27.8393 26.0068 28.25 25.4999 28.25C24.993 28.25 24.5833 27.8393 24.5833 27.3333C24.5833 24.8061 22.5272 22.75 19.9999 22.75C17.4727 22.75 15.4166 24.8061 15.4166 27.3333C15.4166 27.8393 15.0068 28.25 14.4999 28.25C13.993 28.25 13.5833 27.8393 13.5833 27.3333Z" fill="white"/>
</mask>
<g mask="url(#mask0_63_5266)">
<rect x="9" y="9" width="22" height="22" fill="#8E33FF"/>
</g>
</svg>
