<svg width="25" height="25" viewBox="0 0 25 25" fill="none" xmlns="http://www.w3.org/2000/svg">
<path d="M2.08301 12.5003C2.08301 8.57195 2.08301 6.60777 3.30339 5.38738C4.52379 4.16699 6.48797 4.16699 10.4163 4.16699H14.583C18.5113 4.16699 20.4756 4.16699 21.6959 5.38738C22.9163 6.60777 22.9163 8.57195 22.9163 12.5003V14.5837C22.9163 18.512 22.9163 20.4763 21.6959 21.6966C20.4756 22.917 18.5113 22.917 14.583 22.917H10.4163C6.48797 22.917 4.52379 22.917 3.30339 21.6966C2.08301 20.4763 2.08301 18.512 2.08301 14.5837V12.5003Z" stroke="#141A21" stroke-width="1.5625"/>
<path d="M7.29199 4.16699V2.60449" stroke="#141A21" stroke-width="1.5625" stroke-linecap="round"/>
<path d="M17.708 4.16699V2.60449" stroke="#141A21" stroke-width="1.5625" stroke-linecap="round"/>
<path d="M2.60449 9.375H22.3962" stroke="#141A21" stroke-width="1.5625" stroke-linecap="round"/>
<path d="M18.7503 17.7087C18.7503 18.284 18.284 18.7503 17.7087 18.7503C17.1333 18.7503 16.667 18.284 16.667 17.7087C16.667 17.1333 17.1333 16.667 17.7087 16.667C18.284 16.667 18.7503 17.1333 18.7503 17.7087Z" fill="#141A21"/>
<path d="M18.7503 13.5417C18.7503 14.117 18.284 14.5833 17.7087 14.5833C17.1333 14.5833 16.667 14.117 16.667 13.5417C16.667 12.9664 17.1333 12.5 17.7087 12.5C18.284 12.5 18.7503 12.9664 18.7503 13.5417Z" fill="#141A21"/>
<path d="M13.5413 17.7087C13.5413 18.284 13.075 18.7503 12.4997 18.7503C11.9244 18.7503 11.458 18.284 11.458 17.7087C11.458 17.1333 11.9244 16.667 12.4997 16.667C13.075 16.667 13.5413 17.1333 13.5413 17.7087Z" fill="#141A21"/>
<path d="M13.5413 13.5417C13.5413 14.117 13.075 14.5833 12.4997 14.5833C11.9244 14.5833 11.458 14.117 11.458 13.5417C11.458 12.9664 11.9244 12.5 12.4997 12.5C13.075 12.5 13.5413 12.9664 13.5413 13.5417Z" fill="#141A21"/>
<path d="M8.33333 17.7087C8.33333 18.284 7.86696 18.7503 7.29167 18.7503C6.71637 18.7503 6.25 18.284 6.25 17.7087C6.25 17.1333 6.71637 16.667 7.29167 16.667C7.86696 16.667 8.33333 17.1333 8.33333 17.7087Z" fill="#141A21"/>
<path d="M8.33333 13.5417C8.33333 14.117 7.86696 14.5833 7.29167 14.5833C6.71637 14.5833 6.25 14.117 6.25 13.5417C6.25 12.9664 6.71637 12.5 7.29167 12.5C7.86696 12.5 8.33333 12.9664 8.33333 13.5417Z" fill="#141A21"/>
</svg>
