<svg width="20" height="20" viewBox="0 0 20 20" fill="none" xmlns="http://www.w3.org/2000/svg">
<path d="M1.66699 5.83301L8.47107 10.5958C9.02207 10.9816 9.29757 11.1744 9.59724 11.2491C9.86191 11.3151 10.1387 11.3151 10.4034 11.2491C10.7031 11.1744 10.9786 10.9816 11.5296 10.5958L18.3337 5.83301M5.66699 16.6663H14.3337C15.7338 16.6663 16.4338 16.6663 16.9687 16.3938C17.4391 16.1542 17.8215 15.7718 18.0612 15.3013C18.3337 14.7665 18.3337 14.0665 18.3337 12.6663V7.33301C18.3337 5.93287 18.3337 5.23281 18.0612 4.69803C17.8215 4.22762 17.4391 3.84517 16.9687 3.60549C16.4338 3.33301 15.7338 3.33301 14.3337 3.33301H5.66699C4.26686 3.33301 3.56679 3.33301 3.03202 3.60549C2.56161 3.84517 2.17916 4.22762 1.93948 4.69803C1.66699 5.23281 1.66699 5.93287 1.66699 7.33301V12.6663C1.66699 14.0665 1.66699 14.7665 1.93948 15.3013C2.17916 15.7718 2.56161 16.1542 3.03202 16.3938C3.56679 16.6663 4.26686 16.6663 5.66699 16.6663Z" stroke="#078DEE" stroke-width="1.3" stroke-linecap="round" stroke-linejoin="round"/>
</svg>
