<svg width="30" height="30" viewBox="0 0 30 30" fill="none" xmlns="http://www.w3.org/2000/svg">
<path opacity="0.4" d="M15 6.62511V26.6626C15.2125 26.6626 15.4375 26.6251 15.6125 26.5251L15.6625 26.5001C18.0625 25.1876 22.25 23.8126 24.9625 23.4501L25.325 23.4001C26.525 23.2501 27.5 22.1251 27.5 20.9251V5.8251C27.5 4.3376 26.2875 3.21261 24.8 3.33761C22.175 3.55011 18.2 4.87515 15.975 6.26265L15.6625 6.4501C15.475 6.5626 15.2375 6.62511 15 6.62511Z" fill="#078DEE"/>
<path d="M2.5 5.83765V20.9251C2.5 22.1251 3.47499 23.2501 4.67499 23.4001L5.08751 23.4501C7.81251 23.8126 12.0125 25.2001 14.4125 26.5251C14.575 26.6251 14.775 26.6627 15 26.6627V6.62515C14.7625 6.62515 14.525 6.56263 14.3375 6.45013L14.125 6.31265C11.9 4.91265 7.91247 3.57516 5.28748 3.35016H5.21248C3.72497 3.22516 2.5 4.33765 2.5 5.83765Z" fill="#078DEE"/>
<path d="M23.75 3.47534V8.83782C23.75 9.33782 23.2 9.63779 22.775 9.36279L21.25 8.3503L19.725 9.36279C19.3125 9.63779 18.75 9.33782 18.75 8.83782V4.90029C20.3875 4.25029 22.2125 3.72534 23.75 3.47534Z" fill="#078DEE"/>
</svg>
