<svg width="33" height="33" viewBox="0 0 33 33" fill="none" xmlns="http://www.w3.org/2000/svg">
<path opacity="0.1" d="M24.514 9.38909C25.3089 10.1839 25.7063 10.5813 25.9157 11.0867C26.125 11.5921 26.125 12.1541 26.125 13.2782V23.375C26.125 25.9677 26.125 27.264 25.3195 28.0695C24.514 28.875 23.2177 28.875 20.625 28.875H12.375C9.78227 28.875 8.48591 28.875 7.68046 28.0695C6.875 27.264 6.875 25.9677 6.875 23.375V9.625C6.875 7.03227 6.875 5.73591 7.68046 4.93046C8.48591 4.125 9.78227 4.125 12.375 4.125H16.9718C18.0958 4.125 18.6579 4.125 19.1632 4.33433C19.6687 4.54366 20.0661 4.94108 20.8609 5.73591L24.514 9.38909Z" fill="#323232"/>
<path d="M24.514 9.38909C25.3089 10.1839 25.7063 10.5813 25.9157 11.0867C26.125 11.5921 26.125 12.1541 26.125 13.2782V23.375C26.125 25.9677 26.125 27.264 25.3195 28.0695C24.514 28.875 23.2177 28.875 20.625 28.875H12.375C9.78227 28.875 8.48591 28.875 7.68046 28.0695C6.875 27.264 6.875 25.9677 6.875 23.375V9.625C6.875 7.03227 6.875 5.73591 7.68046 4.93046C8.48591 4.125 9.78227 4.125 12.375 4.125H16.9718C18.0958 4.125 18.6579 4.125 19.1632 4.33433C19.6687 4.54366 20.0661 4.94108 20.8609 5.73591L24.514 9.38909Z" fill="#9CD1F8"/>
<path d="M12.375 19.25L14.5436 21.4186C14.8647 21.7397 15.3853 21.7397 15.7064 21.4186L20.625 16.5" stroke="#078DEE" stroke-width="2" stroke-linecap="round" stroke-linejoin="round"/>
</svg>
