<svg width="40" height="40" viewBox="0 0 40 40" fill="none" xmlns="http://www.w3.org/2000/svg">
<circle cx="20" cy="20" r="20" fill="#EDFAF2"/>
<path fill-rule="evenodd" clip-rule="evenodd" d="M15.4166 26.4167C14.9116 26.4167 14.5 26.0051 14.5 25.5C14.5 24.9949 14.9116 24.5833 15.4166 24.5833H25.5V26.4167H15.4166ZM15.4166 13.5833H25.5V22.75H15.4166C15.0931 22.75 14.7878 22.816 14.5 22.9187V14.5C14.5 13.9949 14.9116 13.5833 15.4166 13.5833ZM26.4166 11.75H15.4166C13.9005 11.75 12.6666 12.9838 12.6666 14.5V25.5C12.6666 27.0162 13.9005 28.25 15.4166 28.25H25.5H26.4166C26.9226 28.25 27.3333 27.8393 27.3333 27.3333V26.4167V24.5833V12.6667C27.3333 12.1607 26.9226 11.75 26.4166 11.75Z" fill="#22C55E"/>
<mask id="mask0_57_3600" style="mask-type:luminance" maskUnits="userSpaceOnUse" x="12" y="11" width="16" height="18">
<path fill-rule="evenodd" clip-rule="evenodd" d="M15.4166 26.4167C14.9116 26.4167 14.5 26.0051 14.5 25.5C14.5 24.9949 14.9116 24.5833 15.4166 24.5833H25.5V26.4167H15.4166ZM15.4166 13.5833H25.5V22.75H15.4166C15.0931 22.75 14.7878 22.816 14.5 22.9187V14.5C14.5 13.9949 14.9116 13.5833 15.4166 13.5833ZM26.4166 11.75H15.4166C13.9005 11.75 12.6666 12.9838 12.6666 14.5V25.5C12.6666 27.0162 13.9005 28.25 15.4166 28.25H25.5H26.4166C26.9226 28.25 27.3333 27.8393 27.3333 27.3333V26.4167V24.5833V12.6667C27.3333 12.1607 26.9226 11.75 26.4166 11.75Z" fill="white"/>
</mask>
<g mask="url(#mask0_57_3600)">
<rect x="9" y="9" width="22" height="22" fill="#22C55E"/>
</g>
</svg>
