<svg width="24" height="24" viewBox="0 0 24 24" fill="none" xmlns="http://www.w3.org/2000/svg">
<circle cx="12" cy="12" r="12" fill="#E0E0E0"/>
<g clip-path="url(#clip0_751_9730)">
<path d="M5.86631 10.4566C5.93245 9.79133 6.49775 9.29961 7.1663 9.29961V9.29961C7.67754 9.29961 8.14447 9.00943 8.37084 8.55104L8.89006 7.49961C9.16222 6.94849 9.7236 6.59961 10.3383 6.59961H13.6641C14.2787 6.59961 14.8401 6.94849 15.1123 7.49961L15.6315 8.55104C15.8579 9.00943 16.3248 9.29961 16.836 9.29961V9.29961C17.5046 9.29961 18.0699 9.79133 18.136 10.4566C18.2157 11.2581 18.3012 12.3789 18.3012 13.4996C18.3012 13.6013 18.3005 13.7023 18.2991 13.8025C18.2788 15.3194 18.2687 16.0779 17.4599 16.9294C16.6512 17.781 15.9121 17.829 14.4339 17.9251C13.7352 17.9705 12.9264 17.9996 12.0012 17.9996C11.076 17.9996 10.2672 17.9705 9.56852 17.9251C8.0903 17.829 7.35119 17.781 6.54242 16.9294C5.73365 16.0779 5.7235 15.3194 5.70321 13.8024C5.70188 13.7023 5.70117 13.6013 5.70117 13.4996C5.70117 12.3789 5.78662 11.2581 5.86631 10.4566Z" stroke="#141A21" stroke-width="1.5"/>
<path d="M13.6516 12.5992C13.6516 13.5105 12.9128 14.2492 12.0016 14.2492C11.0903 14.2492 10.3516 13.5105 10.3516 12.5992C10.3516 11.6879 11.0903 10.9492 12.0016 10.9492C12.9128 10.9492 13.6516 11.6879 13.6516 12.5992Z" stroke="#141A21" stroke-width="1.5"/>
</g>
<defs>
<clipPath id="clip0_751_9730">
<rect width="14.4" height="14.4" fill="white" transform="translate(4.80078 4.7998)"/>
</clipPath>
</defs>
</svg>
