<svg width="34" height="34" viewBox="0 0 34 34" fill="none" xmlns="http://www.w3.org/2000/svg">
<g clip-path="url(#clip0_751_10090)">
<path d="M16.725 3.25C16.45 3.25 16.175 3.3875 16.0375 3.525L14.1125 5.3125L11.9125 4.9C11.225 4.7625 10.8125 5.175 10.675 5.725L10.2625 8.2L7.925 9.3C7.375 9.575 7.2375 10.125 7.5125 10.675L8.6125 12.875L7.5125 15.075C7.2375 15.625 7.5125 16.175 7.925 16.45L10.2625 17.55L10.675 20.025C10.8125 20.575 11.3625 20.9875 11.9125 20.85L14.525 20.4375L16.45 22.225C16.8625 22.6375 17.55 22.6375 17.9625 22.225L19.8875 20.4375L22.5 20.85C23.05 20.9875 23.6 20.575 23.7375 20.025L24.15 17.55L26.4875 16.45C27.0375 16.175 27.175 15.625 26.9 15.075L25.3875 12.875L26.4875 10.675C26.7625 10.125 26.625 9.575 26.075 9.3L23.7375 8.2L23.325 5.725C23.1875 5.175 22.6375 4.7625 22.0875 4.9L19.475 5.3125L17.55 3.525C17.4125 3.25 17 3.25 16.725 3.25ZM8.8875 18.5125L4.625 27.0375L9.575 26.35L12.05 30.75L15.625 23.4625L15.35 23.1875L13.975 21.95L12.05 22.225C10.8125 22.3625 9.575 21.5375 9.3 20.3L8.8875 18.5125ZM25.1125 18.5125L24.7 20.3C24.425 21.4 23.4625 22.225 22.3625 22.225H22.0875L20.1625 21.95L18.7875 23.1875L18.5125 23.4625L22.0875 30.75L24.5625 26.4875L29.5125 27.175L25.1125 18.5125Z" fill="#9CD1F8"/>
<path d="M8.81719 18.5127L4.55469 27.0377L9.50469 26.3502L11.9797 30.7502L15.5547 23.4627L15.2797 23.1877L13.9047 21.9502L11.9797 22.2252C10.7422 22.3627 9.50469 21.5377 9.22969 20.3002L8.81719 18.5127ZM25.0422 18.5127L24.6297 20.3002C24.3547 21.4002 23.3922 22.2252 22.2922 22.2252H22.0172L20.0922 21.9502L18.7172 23.1877L18.4422 23.4627L22.0172 30.7502L24.4922 26.4877L29.4422 27.1752L25.0422 18.5127Z" fill="#078DEE"/>
</g>
<defs>
<clipPath id="clip0_751_10090">
<rect width="33" height="33" fill="white" transform="translate(0.5 0.5)"/>
</clipPath>
</defs>
</svg>
