<svg width="30" height="30" viewBox="0 0 30 30" fill="none" xmlns="http://www.w3.org/2000/svg">
<path d="M18.7494 22.5009C19.7943 23.286 21.0932 23.7512 22.5008 23.7512C23.9073 23.7512 25.2052 23.2867 26.2497 22.5027L26.2503 26.5605C26.2503 27.274 25.4946 27.7098 24.8877 27.3966L24.7758 27.329L22.5004 25.7386L20.2258 27.329C19.6409 27.7376 18.8509 27.3679 18.76 26.6909L18.7513 26.5605L18.7494 22.5009ZM24.0625 3.75488C25.8907 3.75488 27.3855 5.18201 27.4937 6.98298L27.5 7.19238L27.5017 13.7497C26.9963 13.0769 26.3584 12.5095 25.6266 12.0861L25.625 7.19238C25.625 6.38337 25.0102 5.71797 24.2223 5.63795L24.0625 5.62988H5.9375C5.12849 5.62988 4.46308 6.24473 4.38307 7.03263L4.375 7.19238V19.0674C4.375 19.8764 4.98984 20.5418 5.77774 20.6218L5.9375 20.6299L17.0886 20.63C17.2134 20.8453 17.3507 21.0525 17.4994 21.2505L17.5 22.5049H5.9375C4.10934 22.5049 2.61449 21.0778 2.50627 19.2768L2.5 19.0674V7.19238C2.5 5.36422 3.92713 3.86938 5.7281 3.76116L5.9375 3.75488H24.0625ZM22.5008 12.4996C25.2627 12.4996 27.5016 14.7386 27.5016 17.5004C27.5016 20.2623 25.2627 22.5012 22.5008 22.5012C19.7389 22.5012 17.5 20.2623 17.5 17.5004C17.5 14.7386 19.7389 12.4996 22.5008 12.4996ZM14.0625 15.6246C14.5803 15.6246 15 16.0444 15 16.5621C15 17.0367 14.6473 17.429 14.1897 17.4911L14.0625 17.4996H8.4375C7.91973 17.4996 7.5 17.0799 7.5 16.5621C7.5 16.0875 7.85269 15.6953 8.31029 15.6332L8.4375 15.6246H14.0625ZM21.5625 8.74963C22.0803 8.74963 22.5 9.16936 22.5 9.68713C22.5 10.1617 22.1473 10.554 21.6897 10.6161L21.5625 10.6246H8.4375C7.91973 10.6246 7.5 10.2049 7.5 9.68713C7.5 9.21251 7.85269 8.82026 8.31029 8.75819L8.4375 8.74963H21.5625Z" fill="#078DEE"/>
<circle cx="22.4972" cy="17.4953" r="5.0324" fill="#9CD1F8"/>
</svg>
