<svg xmlns="http://www.w3.org/2000/svg" fill="none" viewBox="11.44 8 40 40">
<g filter="url(#filter0_d_751_9580)">
<circle cx="31.4414" cy="28" r="20" fill="white"/>
<circle cx="31.4414" cy="28" r="20" fill="#DBEEFD"/>
</g>
<path d="M31.4599 18.417C27.9332 18.417 25.0774 21.2728 25.0774 24.7995V26.812C25.0774 27.4637 24.809 28.4412 24.4736 28.997L23.2565 31.0287C22.509 32.2841 23.0265 33.6832 24.4065 34.1432C28.9874 35.667 33.9419 35.667 38.5228 34.1432C39.8165 33.712 40.3724 32.1978 39.6728 31.0287L38.4557 28.997C38.1203 28.4412 37.8519 27.4541 37.8519 26.812V24.7995C37.8424 21.292 34.9674 18.417 31.4599 18.417Z" stroke="#078DEE" stroke-width="1.8" stroke-miterlimit="10" stroke-linecap="round"/>
<path d="M34.6325 34.5352C34.6325 36.2889 33.195 37.7264 31.4412 37.7264C30.5691 37.7264 29.7641 37.3622 29.1892 36.7872C28.6142 36.2122 28.25 35.4072 28.25 34.5352" stroke="#078DEE" stroke-width="1.8" stroke-miterlimit="10"/>
<defs>
<filter id="filter0_d_751_9580" x="0.441406" y="0" width="62" height="62" filterUnits="userSpaceOnUse" color-interpolation-filters="sRGB">
<feFlood flood-opacity="0" result="BackgroundImageFix"/>
<feColorMatrix in="SourceAlpha" type="matrix" values="0 0 0 0 0 0 0 0 0 0 0 0 0 0 0 0 0 0 127 0" result="hardAlpha"/>
<feMorphology radius="1" operator="erode" in="SourceAlpha" result="effect1_dropShadow_751_9580"/>
<feOffset dy="3"/>
<feGaussianBlur stdDeviation="6"/>
<feComposite in2="hardAlpha" operator="out"/>
<feColorMatrix type="matrix" values="0 0 0 0 0 0 0 0 0 0 0 0 0 0 0 0 0 0 0.08 0"/>
<feBlend mode="normal" in2="BackgroundImageFix" result="effect1_dropShadow_751_9580"/>
<feBlend mode="normal" in="SourceGraphic" in2="effect1_dropShadow_751_9580" result="shape"/>
</filter>
</defs>
</svg>