<svg width="34" height="34" viewBox="0 0 34 34" fill="none" xmlns="http://www.w3.org/2000/svg">
<path opacity="0.4" d="M17 3.25C13.3975 3.25 10.4688 6.17875 10.4688 9.78125C10.4688 13.315 13.2325 16.175 16.835 16.2987C16.945 16.285 17.055 16.285 17.1375 16.2987C17.165 16.2987 17.1788 16.2987 17.2063 16.2987C17.22 16.2987 17.22 16.2987 17.2338 16.2987C20.7538 16.175 23.5175 13.315 23.5313 9.78125C23.5313 6.17875 20.6025 3.25 17 3.25Z" fill="#078DEE"/>
<path d="M23.9872 19.9562C20.151 17.3987 13.8948 17.3987 10.031 19.9562C8.28477 21.125 7.32227 22.7062 7.32227 24.3975C7.32227 26.0887 8.28477 27.6562 10.0173 28.8112C11.9423 30.1037 14.4722 30.75 17.0022 30.75C19.5322 30.75 22.0622 30.1037 23.9872 28.8112C25.7197 27.6425 26.6822 26.075 26.6822 24.37C26.6685 22.6787 25.7197 21.1112 23.9872 19.9562Z" fill="#078DEE"/>
</svg>
