<svg xmlns="http://www.w3.org/2000/svg" fill="none" viewBox="11.44 8 40 40">
<g filter="url(#filter0_d_751_9503)">
<circle cx="31.4414" cy="28" r="20" fill="#9CD1F8" fill-opacity="0.37" shape-rendering="crispEdges"/>
</g>
<path d="M31.6019 26.87C31.5019 26.86 31.3819 26.86 31.2719 26.87C28.892 26.79 27.002 24.84 27.002 22.44C27.002 19.99 28.982 18 31.4419 18C33.8919 18 35.8819 19.99 35.8819 22.44C35.8719 24.84 33.9819 26.79 31.6019 26.87Z" stroke="#078DEE" stroke-width="1.7" stroke-linecap="round" stroke-linejoin="round"/>
<path d="M26.6021 30.56C24.1821 32.18 24.1821 34.82 26.6021 36.43C29.3521 38.27 33.8621 38.27 36.6121 36.43C39.0321 34.81 39.0321 32.17 36.6121 30.56C33.8721 28.73 29.3621 28.73 26.6021 30.56Z" stroke="#078DEE" stroke-width="1.7" stroke-linecap="round" stroke-linejoin="round"/>
<defs>
<filter id="filter0_d_751_9503" x="0.441406" y="0" width="62" height="62" filterUnits="userSpaceOnUse" color-interpolation-filters="sRGB">
<feFlood flood-opacity="0" result="BackgroundImageFix"/>
<feColorMatrix in="SourceAlpha" type="matrix" values="0 0 0 0 0 0 0 0 0 0 0 0 0 0 0 0 0 0 127 0" result="hardAlpha"/>
<feMorphology radius="1" operator="erode" in="SourceAlpha" result="effect1_dropShadow_751_9503"/>
<feOffset dy="3"/>
<feGaussianBlur stdDeviation="6"/>
<feComposite in2="hardAlpha" operator="out"/>
<feColorMatrix type="matrix" values="0 0 0 0 0 0 0 0 0 0 0 0 0 0 0 0 0 0 0.08 0"/>
<feBlend mode="normal" in2="BackgroundImageFix" result="effect1_dropShadow_751_9503"/>
<feBlend mode="normal" in="SourceGraphic" in2="effect1_dropShadow_751_9503" result="shape"/>
</filter>
</defs>
</svg>