<svg xmlns="http://www.w3.org/2000/svg" fill="none" viewBox="11.44 8 40 40">
<g filter="url(#filter0_d_751_9659)">
<circle cx="31.4414" cy="28" r="20" fill="white"/>
<circle cx="31.4414" cy="28" r="20" fill="#DBEEFD"/>
</g>
<path d="M30.7115 20.4112C30.943 19.8918 31.0588 19.6321 31.22 19.5521C31.36 19.4826 31.5244 19.4826 31.6644 19.5521C31.8256 19.6321 31.9414 19.8918 32.1729 20.4112L34.0169 24.5481C34.0854 24.7016 34.1196 24.7784 34.1726 24.8372C34.2194 24.8892 34.2767 24.9308 34.3406 24.9593C34.4129 24.9915 34.4965 25.0003 34.6637 25.018L39.168 25.4934C39.7335 25.553 40.0162 25.5829 40.1421 25.7115C40.2514 25.8232 40.3022 25.9796 40.2794 26.1342C40.2532 26.3122 40.042 26.5025 39.6196 26.8832L36.2549 29.9154C36.1301 30.0279 36.0676 30.0842 36.0281 30.1527C35.9931 30.2134 35.9712 30.2807 35.9639 30.3503C35.9556 30.429 35.973 30.5112 36.0079 30.6757L36.9477 35.1064C37.0657 35.6627 37.1247 35.9408 37.0413 36.1002C36.9688 36.2388 36.8358 36.3354 36.6817 36.3615C36.5043 36.3915 36.258 36.2495 35.7654 35.9654L31.8419 33.7024C31.6963 33.6184 31.6235 33.5765 31.5461 33.56C31.4776 33.5455 31.4068 33.5455 31.3383 33.56C31.2609 33.5765 31.1881 33.6184 31.0425 33.7024L27.119 35.9654C26.6264 36.2495 26.3801 36.3915 26.2027 36.3615C26.0486 36.3354 25.9156 36.2388 25.8431 36.1002C25.7597 35.9408 25.8187 35.6627 25.9367 35.1064L26.8765 30.6757C26.9114 30.5112 26.9288 30.429 26.9205 30.3503C26.9132 30.2807 26.8913 30.2134 26.8563 30.1527C26.8168 30.0842 26.7543 30.0279 26.6295 29.9154L23.2648 26.8832C22.8424 26.5025 22.6312 26.3122 22.605 26.1342C22.5822 25.9796 22.633 25.8232 22.7423 25.7115C22.8682 25.5829 23.1509 25.553 23.7164 25.4934L28.2207 25.018C28.3879 25.0003 28.4715 24.9915 28.5438 24.9593C28.6077 24.9308 28.665 24.8892 28.7118 24.8372C28.7648 24.7784 28.799 24.7016 28.8675 24.5481L30.7115 20.4112Z" stroke="#078DEE" stroke-width="1.7" stroke-linecap="round" stroke-linejoin="round"/>
<defs>
<filter id="filter0_d_751_9659" x="0.441406" y="0" width="62" height="62" filterUnits="userSpaceOnUse" color-interpolation-filters="sRGB">
<feFlood flood-opacity="0" result="BackgroundImageFix"/>
<feColorMatrix in="SourceAlpha" type="matrix" values="0 0 0 0 0 0 0 0 0 0 0 0 0 0 0 0 0 0 127 0" result="hardAlpha"/>
<feMorphology radius="1" operator="erode" in="SourceAlpha" result="effect1_dropShadow_751_9659"/>
<feOffset dy="3"/>
<feGaussianBlur stdDeviation="6"/>
<feComposite in2="hardAlpha" operator="out"/>
<feColorMatrix type="matrix" values="0 0 0 0 0 0 0 0 0 0 0 0 0 0 0 0 0 0 0.08 0"/>
<feBlend mode="normal" in2="BackgroundImageFix" result="effect1_dropShadow_751_9659"/>
<feBlend mode="normal" in="SourceGraphic" in2="effect1_dropShadow_751_9659" result="shape"/>
</filter>
</defs>
</svg>