<svg xmlns="http://www.w3.org/2000/svg" fill="none" viewBox="11.44 8 40 40">
<g filter="url(#filter0_d_751_9561)">
<circle cx="31.4414" cy="28" r="20" fill="white"/>
<circle cx="31.4414" cy="28" r="20" fill="#DBEEFD"/>
</g>
<path d="M40.3513 27.1193C40.3513 32.0093 36.8013 36.5893 31.9513 37.9293C31.6213 38.0193 31.2612 38.0193 30.9312 37.9293C26.0813 36.5893 22.5312 32.0093 22.5312 27.1193V22.7293C22.5312 21.9093 23.1513 20.9793 23.9213 20.6693L29.4912 18.3893C30.7412 17.8793 32.1512 17.8793 33.4012 18.3893L38.9712 20.6693C39.7312 20.9793 40.3613 21.9093 40.3613 22.7293L40.3513 27.1193Z" stroke="#078DEE" stroke-width="1.7" stroke-linecap="round" stroke-linejoin="round"/>
<path d="M31.4434 28.5C32.548 28.5 33.4434 27.6046 33.4434 26.5C33.4434 25.3954 32.548 24.5 31.4434 24.5C30.3388 24.5 29.4434 25.3954 29.4434 26.5C29.4434 27.6046 30.3388 28.5 31.4434 28.5Z" stroke="#078DEE" stroke-width="1.7" stroke-miterlimit="10" stroke-linecap="round" stroke-linejoin="round"/>
<path d="M31.4434 28.5V31.5" stroke="#078DEE" stroke-width="1.7" stroke-miterlimit="10" stroke-linecap="round" stroke-linejoin="round"/>
<defs>
<filter id="filter0_d_751_9561" x="0.441406" y="0" width="62" height="62" filterUnits="userSpaceOnUse" color-interpolation-filters="sRGB">
<feFlood flood-opacity="0" result="BackgroundImageFix"/>
<feColorMatrix in="SourceAlpha" type="matrix" values="0 0 0 0 0 0 0 0 0 0 0 0 0 0 0 0 0 0 127 0" result="hardAlpha"/>
<feMorphology radius="1" operator="erode" in="SourceAlpha" result="effect1_dropShadow_751_9561"/>
<feOffset dy="3"/>
<feGaussianBlur stdDeviation="6"/>
<feComposite in2="hardAlpha" operator="out"/>
<feColorMatrix type="matrix" values="0 0 0 0 0 0 0 0 0 0 0 0 0 0 0 0 0 0 0.08 0"/>
<feBlend mode="normal" in2="BackgroundImageFix" result="effect1_dropShadow_751_9561"/>
<feBlend mode="normal" in="SourceGraphic" in2="effect1_dropShadow_751_9561" result="shape"/>
</filter>
</defs>
</svg>