<svg xmlns="http://www.w3.org/2000/svg" fill="none" viewBox="11.44 8 40 40"><g filter="url(#filter0_d_1037_4233)"><circle cx="31.4414" cy="28" r="20" fill="white"/><circle cx="31.4414" cy="28" r="20" fill="#DBEEFD"/></g><path d="M28.5661 36.3854H25.6911C25.3588 36.3996 25.0269 36.348 24.7145 36.2338C24.4022 36.1195 24.1154 35.9448 23.8706 35.7196C23.6258 35.4944 23.4279 35.2231 23.288 34.9213C23.1482 34.6196 23.0692 34.2932 23.0557 33.9608V22.0392C23.0692 21.7068 23.1482 21.3804 23.288 21.0786C23.4279 20.7769 23.6258 20.5056 23.8706 20.2804C24.1154 20.0552 24.4022 19.8805 24.7145 19.7662C25.0269 19.652 25.3588 19.6005 25.6911 19.6146H28.5661C28.7567 19.6146 28.9395 19.6903 29.0743 19.8251C29.2091 19.9599 29.2848 20.1427 29.2848 20.3333C29.2848 20.524 29.2091 20.7068 29.0743 20.8416C28.9395 20.9764 28.7567 21.0521 28.5661 21.0521H25.6911C25.4065 21.0273 25.1234 21.1131 24.9003 21.2915C24.6773 21.4699 24.5315 21.7274 24.4932 22.0104V33.9608C24.5315 34.2439 24.6773 34.5013 24.9003 34.6797C25.1234 34.8582 25.4065 34.944 25.6911 34.9191H28.5661C28.7567 34.9191 28.9395 34.9949 29.0743 35.1297C29.2091 35.2645 29.2848 35.4473 29.2848 35.6379C29.2848 35.8286 29.2091 36.0113 29.0743 36.1462C28.9395 36.2809 28.7567 36.3566 28.5661 36.3566V36.3854Z" fill="#078DEE"/><path d="M35.2748 32.5518C35.1804 32.5523 35.0868 32.5339 34.9995 32.4976C34.9123 32.4614 34.8332 32.4081 34.7669 32.3409C34.6323 32.2062 34.5567 32.0235 34.5567 31.833C34.5567 31.6426 34.6323 31.4598 34.7669 31.3251L38.0923 27.9997L34.7669 24.6743C34.6962 24.6085 34.6396 24.5291 34.6003 24.441C34.561 24.3528 34.5399 24.2576 34.5382 24.1611C34.5365 24.0646 34.5543 23.9687 34.5904 23.8792C34.6266 23.7898 34.6803 23.7085 34.7487 23.6402C34.8169 23.5719 34.8982 23.5181 34.9877 23.482C35.0772 23.4459 35.173 23.4281 35.2695 23.4298C35.366 23.4315 35.4612 23.4526 35.5493 23.4919C35.6375 23.5312 35.7169 23.5878 35.7827 23.6584L39.616 27.4918C39.7507 27.6265 39.8262 27.8093 39.8262 27.9997C39.8262 28.1902 39.7507 28.3729 39.616 28.5076L35.7827 32.3409C35.7164 32.4081 35.6372 32.4614 35.55 32.4976C35.4628 32.5339 35.3692 32.5523 35.2748 32.5518Z" fill="#078DEE"/><path d="M39.1081 28.7188H28.5664C28.3758 28.7188 28.193 28.643 28.0582 28.5082C27.9234 28.3735 27.8477 28.1906 27.8477 28C27.8477 27.8094 27.9234 27.6265 28.0582 27.4918C28.193 27.357 28.3758 27.2812 28.5664 27.2812H39.1081C39.2987 27.2812 39.4815 27.357 39.6163 27.4918C39.7511 27.6265 39.8268 27.8094 39.8268 28C39.8268 28.1906 39.7511 28.3735 39.6163 28.5082C39.4815 28.643 39.2987 28.7188 39.1081 28.7188Z" fill="#078DEE"/><defs><filter id="filter0_d_1037_4233" x="0.441406" y="0" width="62" height="62" filterUnits="userSpaceOnUse" color-interpolation-filters="sRGB"><feFlood flood-opacity="0" result="BackgroundImageFix"/><feColorMatrix in="SourceAlpha" type="matrix" values="0 0 0 0 0 0 0 0 0 0 0 0 0 0 0 0 0 0 127 0" result="hardAlpha"/><feMorphology radius="1" operator="erode" in="SourceAlpha" result="effect1_dropShadow_1037_4233"/><feOffset dy="3"/><feGaussianBlur stdDeviation="6"/><feComposite in2="hardAlpha" operator="out"/><feColorMatrix type="matrix" values="0 0 0 0 0 0 0 0 0 0 0 0 0 0 0 0 0 0 0.08 0"/><feBlend mode="normal" in2="BackgroundImageFix" result="effect1_dropShadow_1037_4233"/><feBlend mode="normal" in="SourceGraphic" in2="effect1_dropShadow_1037_4233" result="shape"/></filter></defs></svg>