<svg width="32" height="32" viewBox="0 0 32 32" fill="none" xmlns="http://www.w3.org/2000/svg">
<path opacity="0.4" d="M16.0001 29.3334C23.3638 29.3334 29.3334 23.3638 29.3334 16.0001C29.3334 8.63628 23.3638 2.66675 16.0001 2.66675C8.63628 2.66675 2.66675 8.63628 2.66675 16.0001C2.66675 23.3638 8.63628 29.3334 16.0001 29.3334Z" fill="#078DEE"/>
<path fill-rule="evenodd" clip-rule="evenodd" d="M16 9.66675C16.5523 9.66675 17 10.1145 17 10.6667V15.5858L20.0404 18.6263C20.4309 19.0169 20.4309 19.6499 20.0404 20.0405C19.6499 20.431 19.0168 20.431 18.6263 20.0405L15.2929 16.7071C15.1053 16.5197 15 16.2653 15 16.0001V10.6667C15 10.1145 15.4477 9.66675 16 9.66675Z" fill="#078DEE"/>
</svg>
