<svg width="26" height="27" viewBox="0 0 26 27" fill="none" xmlns="http://www.w3.org/2000/svg">
<path opacity="0.4" d="M13 6.11783V23.4837C13.1842 23.4837 13.3792 23.4512 13.5308 23.3645L13.5742 23.3428C15.6542 22.2053 19.2833 21.0137 21.6342 20.6995L21.9483 20.6562C22.9883 20.5262 23.8333 19.5512 23.8333 18.5112V5.42448C23.8333 4.13532 22.7825 3.16033 21.4933 3.26866C19.2183 3.45283 15.7733 4.60119 13.845 5.80369L13.5742 5.96615C13.4117 6.06365 13.2058 6.11783 13 6.11783Z" fill="#637381"/>
<path d="M2.16644 5.43515V18.511C2.16644 19.551 3.01143 20.526 4.05143 20.656L4.40895 20.6993C6.77062 21.0135 10.4106 22.216 12.4906 23.3643C12.6314 23.451 12.8048 23.4836 12.9998 23.4836V6.11765C12.7939 6.11765 12.5881 6.06348 12.4256 5.96598L12.2414 5.84682C10.3131 4.63349 6.85725 3.47433 4.58225 3.27933H4.51725C3.22809 3.171 2.16644 4.13515 2.16644 5.43515Z" fill="#637381"/>
<path d="M20.5832 3.388V8.03548C20.5832 8.46881 20.1065 8.72879 19.7382 8.49046L18.4165 7.61297L17.0949 8.49046C16.7374 8.72879 16.2499 8.46881 16.2499 8.03548V4.62296C17.669 4.05962 19.2507 3.60467 20.5832 3.388Z" fill="#637381"/>
</svg>
