<svg width="20" height="20" viewBox="0 0 20 20" fill="none" xmlns="http://www.w3.org/2000/svg">
<path d="M1.66699 10.0002C1.66699 6.85746 1.66699 5.28612 2.6433 4.3098C3.61962 3.3335 5.19096 3.3335 8.33366 3.3335H11.667C14.8097 3.3335 16.3811 3.3335 17.3573 4.3098C18.3337 5.28612 18.3337 6.85746 18.3337 10.0002V11.6668C18.3337 14.8095 18.3337 16.3809 17.3573 17.3572C16.3811 18.3335 14.8097 18.3335 11.667 18.3335H8.33366C5.19096 18.3335 3.61962 18.3335 2.6433 17.3572C1.66699 16.3809 1.66699 14.8095 1.66699 11.6668V10.0002Z" stroke="#637381" stroke-width="1.25"/>
<path d="M5.83301 3.3335V2.0835" stroke="#637381" stroke-width="1.25" stroke-linecap="round"/>
<path d="M14.167 3.3335V2.0835" stroke="#637381" stroke-width="1.25" stroke-linecap="round"/>
<path d="M2.08301 7.5H17.9163" stroke="#637381" stroke-width="1.25" stroke-linecap="round"/>
<path d="M14.9997 14.1668C14.9997 14.6271 14.6266 15.0002 14.1663 15.0002C13.7061 15.0002 13.333 14.6271 13.333 14.1668C13.333 13.7066 13.7061 13.3335 14.1663 13.3335C14.6266 13.3335 14.9997 13.7066 14.9997 14.1668Z" fill="#637381"/>
<path d="M14.9997 10.8333C14.9997 11.2936 14.6266 11.6667 14.1663 11.6667C13.7061 11.6667 13.333 11.2936 13.333 10.8333C13.333 10.3731 13.7061 10 14.1663 10C14.6266 10 14.9997 10.3731 14.9997 10.8333Z" fill="#637381"/>
<path d="M10.8337 14.1668C10.8337 14.6271 10.4606 15.0002 10.0003 15.0002C9.54008 15.0002 9.16699 14.6271 9.16699 14.1668C9.16699 13.7066 9.54008 13.3335 10.0003 13.3335C10.4606 13.3335 10.8337 13.7066 10.8337 14.1668Z" fill="#637381"/>
<path d="M10.8337 10.8333C10.8337 11.2936 10.4606 11.6667 10.0003 11.6667C9.54008 11.6667 9.16699 11.2936 9.16699 10.8333C9.16699 10.3731 9.54008 10 10.0003 10C10.4606 10 10.8337 10.3731 10.8337 10.8333Z" fill="#637381"/>
<path d="M6.66667 14.1666C6.66667 14.6268 6.29357 14.9999 5.83333 14.9999C5.3731 14.9999 5 14.6268 5 14.1666C5 13.7063 5.3731 13.3333 5.83333 13.3333C6.29357 13.3333 6.66667 13.7063 6.66667 14.1666Z" fill="#637381"/>
<path d="M6.66667 10.8333C6.66667 11.2936 6.29357 11.6667 5.83333 11.6667C5.3731 11.6667 5 11.2936 5 10.8333C5 10.3731 5.3731 10 5.83333 10C6.29357 10 6.66667 10.3731 6.66667 10.8333Z" fill="#637381"/>
</svg>
