<svg width="26" height="27" viewBox="0 0 26 27" fill="none" xmlns="http://www.w3.org/2000/svg">
<path opacity="0.4" d="M13 6.11783V23.4837C13.1842 23.4837 13.3792 23.4512 13.5308 23.3645L13.5742 23.3428C15.6542 22.2053 19.2833 21.0137 21.6342 20.6995L21.9483 20.6562C22.9883 20.5262 23.8333 19.5512 23.8333 18.5112V5.42448C23.8333 4.13532 22.7825 3.16033 21.4933 3.26866C19.2183 3.45283 15.7733 4.60119 13.845 5.80369L13.5742 5.96615C13.4117 6.06365 13.2058 6.11783 13 6.11783Z" fill="#078DEE"/>
<path d="M2.16644 5.43514V18.511C2.16644 19.551 3.01143 20.5259 4.05143 20.6559L4.40895 20.6993C6.77062 21.0135 10.4106 22.216 12.4906 23.3643C12.6314 23.4509 12.8048 23.4836 12.9998 23.4836V6.11764C12.7939 6.11764 12.5881 6.06346 12.4256 5.96596L12.2414 5.84681C10.3131 4.63347 6.85725 3.47432 4.58225 3.27932H4.51725C3.22809 3.17098 2.16644 4.13514 2.16644 5.43514Z" fill="#078DEE"/>
<path d="M20.5832 3.38799V8.03546C20.5832 8.4688 20.1065 8.72878 19.7382 8.49044L18.4165 7.61295L17.0949 8.49044C16.7374 8.72878 16.2499 8.4688 16.2499 8.03546V4.62294C17.669 4.05961 19.2507 3.60465 20.5832 3.38799Z" fill="#078DEE"/>
</svg>
