<svg width="26" height="27" viewBox="0 0 26 27" fill="none" xmlns="http://www.w3.org/2000/svg">
<path opacity="0.32" d="M21.7101 7.76436L15.4701 3.39852C13.7692 2.20685 11.1584 2.27185 9.52256 3.53935L4.09506 7.77519C3.01172 8.62019 2.15589 10.3535 2.15589 11.7185V19.1935C2.15589 21.956 4.39839 24.2094 7.16089 24.2094H18.8392C21.6017 24.2094 23.8442 21.9669 23.8442 19.2044V11.8594C23.8442 10.3969 22.9017 8.59852 21.7101 7.76436Z" fill="#637381"/>
<path d="M13 20.6885C12.5558 20.6885 12.1875 20.3202 12.1875 19.876V16.626C12.1875 16.1819 12.5558 15.8135 13 15.8135C13.4442 15.8135 13.8125 16.1819 13.8125 16.626V19.876C13.8125 20.3202 13.4442 20.6885 13 20.6885Z" fill="#637381"/>
</svg>
