<svg width="26" height="27" viewBox="0 0 26 27" fill="none" xmlns="http://www.w3.org/2000/svg">
<g clip-path="url(#clip0_8_1462)">
<path d="M23.8333 5.79279C23.8333 7.58771 22.3783 9.04279 20.5833 9.04279C18.7883 9.04279 17.3333 7.58771 17.3333 5.79279C17.3333 3.99786 18.7883 2.54279 20.5833 2.54279C22.3783 2.54279 23.8333 3.99786 23.8333 5.79279Z" fill="#637381"/>
<path opacity="0.5" d="M16.504 3.12211C15.4049 2.74656 14.2261 2.54279 12.9997 2.54279C7.01666 2.54279 2.16641 7.39303 2.16641 13.3761C2.16641 15.1091 2.57333 16.747 3.29683 18.1997C3.4891 18.5857 3.55309 19.0269 3.44163 19.4434L2.79638 21.855C2.51627 22.9019 3.47401 23.8595 4.52087 23.5795L6.93241 22.9343C7.349 22.8228 7.79022 22.8868 8.17624 23.079C9.6288 23.8025 11.2667 24.2094 12.9997 24.2094C18.9828 24.2094 23.8331 19.3592 23.8331 13.3761C23.8331 12.1498 23.6293 10.971 23.2537 9.87182C22.4867 10.3751 21.569 10.6678 20.5831 10.6678C17.8907 10.6678 15.7081 8.48517 15.7081 5.79279C15.7081 4.80681 16.0008 3.8892 16.504 3.12211Z" fill="#637381"/>
</g>
<defs>
<clipPath id="clip0_8_1462">
<rect width="26" height="26" fill="white" transform="translate(0 0.376038)"/>
</clipPath>
</defs>
</svg>
