<svg width="30" height="30" viewBox="0 0 30 30" fill="none" xmlns="http://www.w3.org/2000/svg">
<path opacity="0.4" d="M25.625 8.75V18.75H7.9375C5.975 18.75 4.375 20.35 4.375 22.3125V8.75C4.375 3.75 5.625 2.5 10.625 2.5H19.375C24.375 2.5 25.625 3.75 25.625 8.75Z" fill="#078DEE"/>
<path d="M25.625 18.75V23.125C25.625 25.5375 23.6625 27.5 21.25 27.5H8.75C6.3375 27.5 4.375 25.5375 4.375 23.125V22.3125C4.375 20.35 5.975 18.75 7.9375 18.75H25.625Z" fill="#078DEE"/>
<path d="M20 9.6875H10C9.4875 9.6875 9.0625 9.2625 9.0625 8.75C9.0625 8.2375 9.4875 7.8125 10 7.8125H20C20.5125 7.8125 20.9375 8.2375 20.9375 8.75C20.9375 9.2625 20.5125 9.6875 20 9.6875Z" fill="#078DEE"/>
<path d="M16.25 14.0625H10C9.4875 14.0625 9.0625 13.6375 9.0625 13.125C9.0625 12.6125 9.4875 12.1875 10 12.1875H16.25C16.7625 12.1875 17.1875 12.6125 17.1875 13.125C17.1875 13.6375 16.7625 14.0625 16.25 14.0625Z" fill="#078DEE"/>
</svg>
