<svg width="30" height="30" viewBox="0 0 30 30" fill="none" xmlns="http://www.w3.org/2000/svg">
<path d="M3.31152 8.10649C3.31152 9.34144 3.47055 10.4174 3.62478 11.1705C3.7724 11.8913 4.32193 12.4408 5.04276 12.5884C5.79585 12.7427 6.87178 12.9017 8.10673 12.9017C9.34169 12.9017 10.4176 12.7427 11.1707 12.5884C11.8915 12.4408 12.4411 11.8913 12.5887 11.1705C12.7429 10.4174 12.9019 9.34144 12.9019 8.10649C12.9019 6.87153 12.7429 5.7956 12.5887 5.04252C12.4411 4.32168 11.8915 3.77216 11.1707 3.62453C10.4176 3.4703 9.34169 3.31128 8.10673 3.31128C6.87178 3.31128 5.79585 3.4703 5.04276 3.62453C4.32192 3.77216 3.7724 4.32168 3.62478 5.04252C3.47055 5.7956 3.31152 6.87153 3.31152 8.10649Z" fill="#99CEF5"/>
<path fill-rule="evenodd" clip-rule="evenodd" d="M8.10662 4.48049C6.96892 4.48049 5.97358 4.62735 5.27715 4.76997C5.01474 4.82371 4.82347 5.01499 4.76973 5.2774C4.6271 5.97383 4.48024 6.96917 4.48024 8.10686C4.48024 9.24456 4.6271 10.2399 4.76973 10.9363C4.82347 11.1987 5.01474 11.39 5.27715 11.4437C5.97358 11.5864 6.96892 11.7332 8.10662 11.7332C9.24431 11.7332 10.2397 11.5864 10.9361 11.4437C11.1985 11.39 11.3898 11.1987 11.4435 10.9363C11.5861 10.2399 11.733 9.24455 11.733 8.10686C11.733 6.96917 11.5861 5.97383 11.4435 5.2774C11.3898 5.01499 11.1985 4.82371 10.9361 4.76997C10.2396 4.62735 9.24431 4.48049 8.10662 4.48049ZM4.80814 2.47984C5.61788 2.31401 6.7744 2.14282 8.10662 2.14282C9.43883 2.14282 10.5954 2.31401 11.4051 2.47984C12.5844 2.72135 13.4921 3.62912 13.7336 4.80839C13.8995 5.61812 14.0707 6.77464 14.0707 8.10686C14.0707 9.43908 13.8995 10.5956 13.7336 11.4053L12.5886 11.1708L13.7336 11.4053C13.4921 12.5846 12.5844 13.4924 11.4051 13.7339C10.5954 13.8997 9.43883 14.0709 8.10662 14.0709C6.7744 14.0709 5.61788 13.8997 4.80814 13.7339L5.04265 12.5888L4.80814 13.7339C3.62888 13.4924 2.72111 12.5846 2.4796 11.4053C2.31377 10.5956 2.14258 9.43908 2.14258 8.10686C2.14258 6.77464 2.31377 5.61812 2.4796 4.80839C2.72111 3.62912 3.62888 2.72135 4.80814 2.47984Z" fill="#99CEF5"/>
<path d="M3.31152 21.8931C3.31152 23.1281 3.47055 24.204 3.62478 24.9571C3.7724 25.6779 4.32193 26.2274 5.04276 26.3751C5.79585 26.5293 6.87178 26.6883 8.10673 26.6883C9.34169 26.6883 10.4176 26.5293 11.1707 26.3751C11.8915 26.2274 12.4411 25.6779 12.5887 24.9571C12.7429 24.204 12.9019 23.1281 12.9019 21.8931C12.9019 20.6582 12.7429 19.5822 12.5887 18.8291C12.4411 18.1083 11.8915 17.5588 11.1707 17.4112C10.4176 17.2569 9.34169 17.0979 8.10673 17.0979C6.87178 17.0979 5.79585 17.2569 5.04276 17.4112C4.32192 17.5588 3.7724 18.1083 3.62478 18.8291C3.47055 19.5822 3.31152 20.6582 3.31152 21.8931Z" fill="#99CEF5"/>
<path fill-rule="evenodd" clip-rule="evenodd" d="M8.10662 18.2669C6.96892 18.2669 5.97358 18.4137 5.27715 18.5564C5.01474 18.6101 4.82347 18.8014 4.76973 19.0638C4.6271 19.7602 4.48024 20.7555 4.48024 21.8932C4.48024 23.0309 4.6271 24.0263 4.76973 24.7227C4.82347 24.9851 5.01474 25.1764 5.27715 25.2301C5.97358 25.3728 6.96892 25.5196 8.10662 25.5196C9.24431 25.5196 10.2397 25.3728 10.9361 25.2301C11.1985 25.1764 11.3898 24.9851 11.4435 24.7227C11.5861 24.0263 11.733 23.0309 11.733 21.8932C11.733 20.7555 11.5861 19.7602 11.4435 19.0638C11.3898 18.8014 11.1985 18.6101 10.9361 18.5564C10.2397 18.4137 9.24431 18.2669 8.10662 18.2669ZM4.80814 16.2662C5.61788 16.1004 6.7744 15.9292 8.10662 15.9292C9.43883 15.9292 10.5954 16.1004 11.4051 16.2662C12.5844 16.5077 13.4921 17.4155 13.7336 18.5948L12.5886 18.8293L13.7336 18.5948C13.8995 19.4045 14.0707 20.561 14.0707 21.8932C14.0707 23.2255 13.8995 24.382 13.7336 25.1917C13.4921 26.371 12.5844 27.2787 11.4051 27.5203C10.5954 27.6861 9.43883 27.8573 8.10662 27.8573C6.7744 27.8573 5.61788 27.6861 4.80814 27.5203C3.62888 27.2787 2.72111 26.371 2.4796 25.1917C2.31377 24.382 2.14258 23.2255 2.14258 21.8932C2.14258 20.561 2.31377 19.4045 2.4796 18.5948C2.72111 17.4155 3.62888 16.5077 4.80814 16.2662Z" fill="#99CEF5"/>
<path d="M17.0974 8.10673C17.0974 9.34169 17.2564 10.4176 17.4107 11.1707C17.5583 11.8915 18.1078 12.4411 18.8286 12.5887C19.5817 12.7429 20.6577 12.9019 21.8926 12.9019C23.1276 12.9019 24.2035 12.7429 24.9566 12.5887C25.6774 12.4411 26.2269 11.8915 26.3746 11.1707C26.5288 10.4176 26.6878 9.34169 26.6878 8.10673C26.6878 6.87178 26.5288 5.79585 26.3746 5.04276C26.2269 4.32192 25.6774 3.7724 24.9566 3.62478C24.2035 3.47055 23.1276 3.31152 21.8926 3.31152C20.6577 3.31152 19.5817 3.47055 18.8286 3.62478C18.1078 3.7724 17.5583 4.32193 17.4107 5.04276C17.2564 5.79585 17.0974 6.87178 17.0974 8.10673Z" fill="#99CEF5"/>
<path fill-rule="evenodd" clip-rule="evenodd" d="M21.893 4.48049C20.7553 4.48049 19.76 4.62735 19.0635 4.76997C18.8011 4.82371 18.6098 5.01499 18.5561 5.2774C18.4135 5.97383 18.2666 6.96917 18.2666 8.10686C18.2666 9.24456 18.4135 10.2399 18.5561 10.9363C18.6098 11.1987 18.8011 11.39 19.0635 11.4437C19.76 11.5864 20.7553 11.7332 21.893 11.7332C23.0307 11.7332 24.026 11.5864 24.7225 11.4437C24.9849 11.39 25.1761 11.1987 25.2299 10.9363C25.3725 10.2399 25.5194 9.24456 25.5194 8.10686C25.5194 6.96917 25.3725 5.97383 25.2299 5.2774C25.1761 5.01499 24.9849 4.82371 24.7225 4.76997C24.026 4.62735 23.0307 4.48049 21.893 4.48049ZM18.5945 2.47984C19.4043 2.31401 20.5608 2.14282 21.893 2.14282C23.2252 2.14282 24.3817 2.31401 25.1915 2.47984C26.3707 2.72135 27.2785 3.62912 27.52 4.80839L26.3749 5.04289L27.52 4.80839C27.6858 5.61812 27.857 6.77464 27.857 8.10686C27.857 9.43908 27.6858 10.5956 27.52 11.4053C27.2785 12.5846 26.3707 13.4924 25.1915 13.7339C24.3817 13.8997 23.2252 14.0709 21.893 14.0709C20.5608 14.0709 19.4043 13.8997 18.5945 13.7339C17.4153 13.4924 16.5075 12.5846 16.266 11.4053C16.1001 10.5956 15.929 9.43908 15.929 8.10686C15.929 6.77464 16.1001 5.61812 16.266 4.80839C16.5075 3.62912 17.4153 2.72135 18.5945 2.47984Z" fill="#99CEF5"/>
<path fill-rule="evenodd" clip-rule="evenodd" d="M22.2858 16.7131C21.5757 16.7131 21.0001 17.2888 21.0001 17.9988V20.5706L18.4278 20.5706C17.7177 20.5706 17.1421 21.1462 17.1421 21.8563C17.1421 22.5664 17.7177 23.142 18.4278 23.142H21.0001V25.7131C21.0001 26.4232 21.5757 26.9989 22.2858 26.9989C22.9959 26.9989 23.5715 26.4232 23.5715 25.7131V23.142H26.1421C26.8522 23.142 27.4278 22.5664 27.4278 21.8563C27.4278 21.1462 26.8522 20.5706 26.1421 20.5706L23.5715 20.5706V17.9988C23.5715 17.2888 22.9959 16.7131 22.2858 16.7131Z" fill="#078DEE"/>
</svg>
