<svg width="42" height="41" viewBox="0 0 42 41" fill="none" xmlns="http://www.w3.org/2000/svg">
<rect x="0.5" width="41" height="41" rx="20.5" fill="white"/>
<path fill-rule="evenodd" clip-rule="evenodd" d="M23.1732 27.3143C23.7418 27.2573 24.126 27.8609 23.8574 28.3495C23.6681 28.6939 23.4013 28.9944 23.0818 29.2406C22.7558 29.4915 22.3777 29.6841 21.9721 29.8134C21.5663 29.943 21.1354 30.0085 20.7029 30.0085C20.2704 30.0085 19.8395 29.943 19.4337 29.8134C19.0281 29.6841 18.65 29.4915 18.3241 29.2406C18.0045 28.9944 17.7377 28.6939 17.5484 28.3495C17.2798 27.8609 17.664 27.2573 18.2327 27.3143C18.41 27.3321 19.798 27.4678 20.7029 27.4678C21.6078 27.4678 22.9958 27.3321 23.1732 27.3143Z" fill="#078DEE" fill-opacity="0.56"/>
<path fill-rule="evenodd" clip-rule="evenodd" d="M24.0416 10.8529C21.9237 9.91219 19.476 9.94618 17.3873 10.9453C15.3099 11.9391 13.9965 13.9775 13.9965 16.208V17.3829C13.9965 18.4273 13.7258 19.4553 13.2088 20.3739L12.9993 20.7459C11.7103 23.0363 13.1196 25.8693 15.7835 26.3426C19.0353 26.9203 22.3697 26.9203 25.6215 26.3426L25.7697 26.3163C28.3983 25.8492 29.8627 23.1246 28.7382 20.7936L28.4934 20.2861C28.0833 19.4363 27.871 18.5107 27.871 17.5739V17.2772C27.4258 17.5391 26.907 17.6893 26.3531 17.6893C24.6973 17.6893 23.355 16.347 23.355 14.6912C23.355 13.2878 24.3192 12.1096 25.6213 11.783C25.2046 11.4483 24.7386 11.1625 24.2309 10.937L24.0416 10.8529Z" fill="#078DEE" fill-opacity="0.86"/>
<path d="M26.3531 16.9973C27.6268 16.9973 28.6594 15.9647 28.6594 14.691C28.6594 13.4173 27.6268 12.3848 26.3531 12.3848C25.0794 12.3848 24.0469 13.4173 24.0469 14.691C24.0469 15.9647 25.0794 16.9973 26.3531 16.9973Z" fill="#FF3D4C"/>
</svg>
