<svg width="30" height="30" viewBox="0 0 30 30" fill="none" xmlns="http://www.w3.org/2000/svg">
<path opacity="0.4" d="M14.375 26.25C20.9334 26.25 26.25 20.9334 26.25 14.375C26.25 7.81661 20.9334 2.5 14.375 2.5C7.81661 2.5 2.5 7.81661 2.5 14.375C2.5 20.9334 7.81661 26.25 14.375 26.25Z" fill="#078DEE"/>
<path d="M26.6257 27.5002C26.4007 27.5002 26.1757 27.4127 26.0132 27.2502L23.6882 24.9252C23.3507 24.5877 23.3507 24.0377 23.6882 23.6877C24.0257 23.3502 24.5757 23.3502 24.9257 23.6877L27.2507 26.0127C27.5882 26.3502 27.5882 26.9002 27.2507 27.2502C27.0757 27.4127 26.8507 27.5002 26.6257 27.5002Z" fill="#078DEE"/>
</svg>
