<svg width="26" height="27" viewBox="0 0 26 27" fill="none" xmlns="http://www.w3.org/2000/svg">
<path opacity="0.4" d="M13.0002 2.54269C10.1619 2.54269 7.85437 4.85019 7.85437 7.68853C7.85437 10.4727 10.0319 12.726 12.8702 12.8235C12.9569 12.8127 13.0435 12.8127 13.1085 12.8235C13.1302 12.8235 13.141 12.8235 13.1627 12.8235C13.1735 12.8235 13.1735 12.8235 13.1844 12.8235C15.9577 12.726 18.1352 10.4727 18.146 7.68853C18.146 4.85019 15.8385 2.54269 13.0002 2.54269Z" fill="#637381"/>
<path d="M18.5042 15.7051C15.4817 13.6901 10.5526 13.6901 7.5084 15.7051C6.13257 16.6259 5.37424 17.8717 5.37424 19.2042C5.37424 20.5367 6.13257 21.7717 7.49757 22.6817C9.01424 23.7001 11.0075 24.2092 13.0009 24.2092C14.9942 24.2092 16.9875 23.7001 18.5042 22.6817C19.8692 21.7609 20.6275 20.5259 20.6275 19.1826C20.6167 17.8501 19.8692 16.6151 18.5042 15.7051Z" fill="#637381"/>
</svg>
