<svg width="30" height="30" viewBox="0 0 30 30" fill="none" xmlns="http://www.w3.org/2000/svg">
<path d="M4.11611 11.6161C3.75 11.9822 3.75 12.5715 3.75 13.75V21.25C3.75 22.4285 3.75 23.0177 4.11611 23.3839C4.48224 23.75 5.07149 23.75 6.25 23.75C7.42851 23.75 8.01776 23.75 8.38389 23.3839C8.75 23.0177 8.75 22.4285 8.75 21.25V13.75C8.75 12.5715 8.75 11.9822 8.38389 11.6161C8.01776 11.25 7.42851 11.25 6.25 11.25C5.07149 11.25 4.48224 11.25 4.11611 11.6161Z" fill="#078DEE"/>
<path opacity="0.4" d="M21.6161 2.86611C21.25 3.23224 21.25 3.82149 21.25 5V21.25C21.25 22.4285 21.25 23.0177 21.6161 23.3839C21.9823 23.75 22.5715 23.75 23.75 23.75C24.9285 23.75 25.5177 23.75 25.8839 23.3839C26.25 23.0177 26.25 22.4285 26.25 21.25V5C26.25 3.82149 26.25 3.23224 25.8839 2.86611C25.5177 2.5 24.9285 2.5 23.75 2.5C22.5715 2.5 21.9823 2.5 21.6161 2.86611Z" fill="#078DEE"/>
<path opacity="0.7" d="M12.5 8.75C12.5 7.57149 12.5 6.98224 12.8661 6.61611C13.2323 6.25 13.8215 6.25 15 6.25C16.1785 6.25 16.7677 6.25 17.1339 6.61611C17.5 6.98224 17.5 7.57149 17.5 8.75V21.25C17.5 22.4285 17.5 23.0177 17.1339 23.3839C16.7677 23.75 16.1785 23.75 15 23.75C13.8215 23.75 13.2323 23.75 12.8661 23.3839C12.5 23.0177 12.5 22.4285 12.5 21.25V8.75Z" fill="#078DEE"/>
<path d="M3.75 26.5625C3.23224 26.5625 2.8125 26.9822 2.8125 27.5C2.8125 28.0178 3.23224 28.4375 3.75 28.4375H26.25C26.7677 28.4375 27.1875 28.0178 27.1875 27.5C27.1875 26.9822 26.7677 26.5625 26.25 26.5625H3.75Z" fill="#078DEE"/>
</svg>
