<svg width="30" height="30" viewBox="0 0 30 30" fill="none" xmlns="http://www.w3.org/2000/svg">
<g clip-path="url(#clip0_168_7300)">
<path d="M29.6389 10.5715L16.3632 4.46053C15.9326 4.26219 15.4739 4.16211 15 4.16211C14.5261 4.16211 14.0675 4.26219 13.6368 4.46053L0.361113 10.5715C0.14168 10.6729 0 10.894 0 11.1356C0 11.3772 0.14168 11.5982 0.361113 11.6997L13.6368 17.8106C14.0674 18.009 14.5261 18.1095 15 18.1095C15.4739 18.1095 15.9326 18.009 16.3633 17.8106L26.8406 12.988V17.8443C26.4248 17.8912 26.1005 18.2451 26.1005 18.6727C26.1005 19.0453 26.3471 19.3679 26.6985 19.4707L25.99 24.1459H29.2523L28.5439 19.4707C28.8952 19.3679 29.1418 19.0453 29.1418 18.6727C29.1418 18.2451 28.8175 17.8912 28.4017 17.8443V12.2693L29.639 11.6997C29.8584 11.5982 30.0001 11.3772 30.0001 11.1356C30.0001 10.894 29.8583 10.6729 29.6389 10.5715Z" fill="#9CD1F8"/>
<path d="M14.9999 20.322C14.341 20.322 13.7025 20.1819 13.1023 19.9058L6.60889 16.9165V22.8719C6.60889 24.1793 10.5596 25.8379 14.9999 25.8379C19.4403 25.8379 23.3911 24.1793 23.3911 22.8719V16.9165L16.8973 19.9058C16.2975 20.1819 15.6591 20.322 14.9999 20.322Z" fill="#078DEE"/>
</g>
<defs>
<clipPath id="clip0_168_7300">
<rect width="30" height="30" fill="white"/>
</clipPath>
</defs>
</svg>
