<svg width="30" height="30" viewBox="0 0 30 30" fill="none" xmlns="http://www.w3.org/2000/svg">
<path opacity="0.4" d="M20.2443 2H9.47C4.79 2 2 4.79001 2 9.47001V20.2443C2 24.9243 4.79 27.7143 9.47 27.7143H20.2443C24.9243 27.7143 27.7143 24.9243 27.7143 20.2443V9.47001C27.7143 4.79001 24.9243 2 20.2443 2Z" fill="#078DEE"/>
<path d="M22.9706 10.833C22.9706 11.3601 22.5463 11.7973 22.0063 11.7973H15.2563C14.7292 11.7973 14.2921 11.3601 14.2921 10.833C14.2921 10.3059 14.7292 9.86872 15.2563 9.86872H22.0063C22.5463 9.86872 22.9706 10.3059 22.9706 10.833Z" fill="#078DEE"/>
<path d="M12.2478 9.58579L9.35493 12.4786C9.16208 12.6715 8.91779 12.7615 8.67351 12.7615C8.42922 12.7615 8.17208 12.6715 7.99208 12.4786L7.02779 11.5144C6.64208 11.1415 6.64208 10.5244 7.02779 10.1515C7.40065 9.77864 8.00494 9.77864 8.39065 10.1515L8.67351 10.4344L10.8849 8.22293C11.2578 7.85007 11.8621 7.85007 12.2478 8.22293C12.6206 8.59579 12.6206 9.21293 12.2478 9.58579Z" fill="#078DEE"/>
<path d="M22.9706 19.833C22.9706 20.3601 22.5463 20.7973 22.0063 20.7973H15.2563C14.7292 20.7973 14.2921 20.3601 14.2921 19.833C14.2921 19.3058 14.7292 18.8687 15.2563 18.8687H22.0063C22.5463 18.8687 22.9706 19.3058 22.9706 19.833Z" fill="#078DEE"/>
<path d="M12.2478 18.5858L9.35493 21.4787C9.16208 21.6715 8.91779 21.7615 8.67351 21.7615C8.42922 21.7615 8.17208 21.6715 7.99208 21.4787L7.02779 20.5144C6.64208 20.1415 6.64208 19.5244 7.02779 19.1515C7.40065 18.7787 8.00494 18.7787 8.39065 19.1515L8.67351 19.4344L10.8849 17.223C11.2578 16.8501 11.8621 16.8501 12.2478 17.223C12.6206 17.5958 12.6206 18.213 12.2478 18.5858Z" fill="#078DEE"/>
</svg>
