<svg width="30" height="30" viewBox="0 0 30 30" fill="none" xmlns="http://www.w3.org/2000/svg">
<path d="M15.3853 17.6C11.9369 15.9032 12.32 13.7685 12.32 13.7685C12.32 13.7137 12.32 13.7137 12.32 13.659C13.1411 14.699 14.2358 15.3558 15.3853 15.3558C16.5348 15.3558 17.5748 14.699 18.4505 13.659C18.4505 13.7137 18.4505 13.7137 18.4505 13.7685C18.4505 13.7685 18.4505 13.7685 18.4505 13.8232C18.4505 14.1516 18.5053 16.0674 15.3853 17.6Z" fill="#51AFF3"/>
<path d="M15.3305 28C19.9284 28 24.0337 25.8105 26.6611 22.4168L25.1832 17.9284L19.0526 14.9726C19.0526 16.0126 18.9979 17.8737 18.6695 20.1726C17.9032 17.7642 15.3305 17.6 15.3305 17.6C15.3305 17.6 12.7579 17.8189 11.9916 20.2274C11.6632 17.8737 11.6084 16.0674 11.6084 14.9726L5.4779 17.9284L4 22.4168C6.62737 25.8105 10.7326 28 15.3305 28Z" fill="#078DEE"/>
<path d="M18.3959 13.7684C18.3959 13.7684 18.779 15.9579 15.3306 17.6C15.3306 17.6 17.9032 17.8189 18.6696 20.2274C18.7243 20.2821 20.0927 15.0274 18.3959 13.7684Z" fill="#9CD1F8"/>
<path d="M12.32 13.7684C12.32 13.7684 11.9368 15.9579 15.3852 17.6C15.3852 17.6 12.8126 17.8189 12.0463 20.2274C11.9916 20.2821 10.6231 15.0274 12.32 13.7684Z" fill="#9CD1F8"/>
<path d="M19.7094 10.2652C19.8189 9.66314 19.8737 9.0063 19.8737 8.45893C19.8737 5.17471 17.8484 3.86103 15.3305 3.86103C12.8126 3.86103 10.7873 5.17471 10.7873 8.45893C10.7873 9.06103 10.8421 9.66314 10.9515 10.2652C10.5684 10.4295 10.4589 11.0316 10.7326 11.5789C10.9515 11.9621 11.28 12.2358 11.6084 12.2358C12.4294 14.2063 13.7979 15.7389 15.3305 15.7389C16.8631 15.7389 18.2315 14.2063 19.0526 12.2358C19.381 12.2358 19.7094 11.9621 19.9284 11.5789C20.2021 11.0316 20.0926 10.4842 19.7094 10.2652Z" fill="#99CEF5"/>
<path d="M15.3306 2C15.3306 2 17.3011 2.05474 19.0527 3.69684C22.8842 7.30948 18.8337 12.6737 18.8337 12.6737C18.8337 12.6737 19.3811 11.36 19.1621 9.99158C19.1074 9.49895 19.0527 8.95158 19.0527 8.45895C19.1074 7.52842 18.8885 6.10527 16.6442 6.48842C16.6442 6.48842 15.3853 7.41895 12.32 6.65263C12.32 6.65263 10.3495 9.66316 11.4442 12.2358C11.4442 12.2358 8.21477 7.36421 11.6085 4.24421L10.7327 4.46316C10.7327 4.46316 11.9916 2.10947 14.5642 2.93053C14.5642 2.93053 14.3453 2.54737 13.5242 2.32842C13.5242 2.32842 14.6737 1.83579 15.3306 2.65684C15.3306 2.60211 15.7137 2.32842 15.3306 2Z" fill="#078DEE"/>
</svg>
