<svg width="26" height="27" viewBox="0 0 26 27" fill="none" xmlns="http://www.w3.org/2000/svg">
<g clip-path="url(#clip0_8_1453)">
<path opacity="0.5" fill-rule="evenodd" clip-rule="evenodd" d="M3.52094 24.2094C3.52094 23.7607 3.88471 23.3969 4.33344 23.3969H21.6668C22.1155 23.3969 22.4793 23.7607 22.4793 24.2094C22.4793 24.6581 22.1155 25.0219 21.6668 25.0219H4.33344C3.88471 25.0219 3.52094 24.6581 3.52094 24.2094Z" fill="#637381"/>
<path opacity="0.5" d="M20.6708 8.36195C22.002 7.03072 22.002 4.87236 20.6708 3.54112C19.3396 2.20989 17.1812 2.20989 15.85 3.54112L15.081 4.31006C15.0915 4.34185 15.1025 4.37409 15.1138 4.40675C15.3956 5.21912 15.9274 6.28405 16.9278 7.28442C17.9281 8.28479 18.993 8.81656 19.8054 9.0984C19.8379 9.10968 19.87 9.12056 19.9017 9.13104L20.6708 8.36195Z" fill="#637381"/>
<path d="M15.1136 4.2756L15.0804 4.30871C15.0911 4.34051 15.1019 4.37275 15.1133 4.4054C15.3951 5.21777 15.9268 6.28271 16.9272 7.28308C17.9277 8.28344 18.9926 8.81521 19.805 9.09705C19.8371 9.10823 19.869 9.11902 19.9003 9.12941L12.4797 16.5501C11.9794 17.0504 11.7291 17.3006 11.4533 17.5158C11.128 17.7695 10.7759 17.9871 10.4034 18.1646C10.0876 18.3151 9.75202 18.427 9.08077 18.6508L5.54111 19.8306C5.21078 19.9407 4.8466 19.8548 4.60039 19.6086C4.35418 19.3623 4.26821 18.9982 4.37832 18.6678L5.5582 15.1281C5.78195 14.4569 5.89382 14.1213 6.04432 13.8055C6.22185 13.433 6.43942 13.0809 6.6932 12.7556C6.90833 12.4798 7.1585 12.2296 7.65875 11.7294L15.1136 4.2756Z" fill="#637381"/>
</g>
<defs>
<clipPath id="clip0_8_1453">
<rect width="26" height="26" fill="white" transform="translate(0 0.376038)"/>
</clipPath>
</defs>
</svg>
