<svg width="40" height="40" viewBox="0 0 40 40" fill="none" xmlns="http://www.w3.org/2000/svg">
<circle cx="20" cy="20" r="20" fill="#22C55E" fill-opacity="0.11"/>
<path d="M17.3967 18.9638C17.305 18.9547 17.195 18.9547 17.0942 18.9638C14.9125 18.8905 13.18 17.103 13.18 14.903C13.18 12.6572 14.995 10.833 17.25 10.833C19.4959 10.833 21.32 12.6572 21.32 14.903C21.3109 17.103 19.5784 18.8905 17.3967 18.9638Z" stroke="#22C55E" stroke-width="1.8" stroke-linecap="round" stroke-linejoin="round"/>
<path d="M24.0425 12.667C25.8208 12.667 27.2508 14.1062 27.2508 15.8753C27.2508 17.6078 25.8758 19.0195 24.1616 19.0837C24.0883 19.0745 24.0058 19.0745 23.9233 19.0837" stroke="#22C55E" stroke-width="1.8" stroke-linecap="round" stroke-linejoin="round"/>
<path d="M12.8133 22.347C10.595 23.832 10.595 26.252 12.8133 27.7278C15.3341 29.4145 19.4683 29.4145 21.9892 27.7278C24.2075 26.2428 24.2075 23.8228 21.9892 22.347C19.4775 20.6695 15.3433 20.6695 12.8133 22.347Z" stroke="#22C55E" stroke-width="1.8" stroke-linecap="round" stroke-linejoin="round"/>
<path d="M25.8117 27.333C26.4717 27.1955 27.095 26.9297 27.6084 26.5355C29.0384 25.463 29.0384 23.6938 27.6084 22.6213C27.1042 22.2363 26.49 21.9797 25.8392 21.833" stroke="#22C55E" stroke-width="1.7" stroke-linecap="round" stroke-linejoin="round"/>
</svg>
