<svg width="40" height="40" viewBox="0 0 40 40" fill="none" xmlns="http://www.w3.org/2000/svg">
<circle cx="20" cy="20" r="20" fill="#FFAB00" fill-opacity="0.1"/>
<path d="M29 25.7402C29 26.6022 28.6576 27.4288 28.0481 28.0383C27.4386 28.6478 26.612 28.9902 25.75 28.9902H14.25C13.388 28.9902 12.5614 28.6478 11.9519 28.0383C11.3424 27.4288 11 26.6022 11 25.7402V14.2402C11 13.3783 11.3424 12.5516 11.9519 11.9421C12.5614 11.3326 13.388 10.9902 14.25 10.9902H25.75C26.612 10.9902 27.4386 11.3326 28.0481 11.9421C28.6576 12.5516 29 13.3783 29 14.2402V25.7402ZM27.5 25.7402V14.2402C27.5 13.7761 27.3156 13.331 26.9874 13.0028C26.6592 12.6746 26.2141 12.4902 25.75 12.4902H14.25C13.7859 12.4902 13.3408 12.6746 13.0126 13.0028C12.6844 13.331 12.5 13.7761 12.5 14.2402V25.7402C12.5 26.7062 13.284 27.4902 14.25 27.4902H25.75C26.2141 27.4902 26.6592 27.3059 26.9874 26.9777C27.3156 26.6495 27.5 26.2044 27.5 25.7402ZM25 15.7402C25 15.9215 24.9344 16.0966 24.8152 16.2332C24.6961 16.3698 24.5316 16.4586 24.352 16.4832L24.25 16.4902H15.75C15.56 16.4902 15.3771 16.418 15.2382 16.2883C15.0994 16.1585 15.0149 15.9809 15.002 15.7914C14.989 15.6018 15.0485 15.4143 15.1684 15.2669C15.2884 15.1195 15.4597 15.0231 15.648 14.9972L15.75 14.9902H24.25C24.4489 14.9902 24.6397 15.0693 24.7803 15.2099C24.921 15.3506 25 15.5413 25 15.7402ZM25 24.2402C25 24.4215 24.9344 24.5966 24.8152 24.7332C24.6961 24.8698 24.5316 24.9586 24.352 24.9832L24.25 24.9902H15.75C15.56 24.9902 15.3771 24.918 15.2382 24.7883C15.0994 24.6585 15.0149 24.4809 15.002 24.2914C14.989 24.1018 15.0485 23.9143 15.1684 23.7669C15.2884 23.6195 15.4597 23.5231 15.648 23.4972L15.75 23.4902H24.25C24.4489 23.4902 24.6397 23.5693 24.7803 23.7099C24.921 23.8506 25 24.0413 25 24.2402ZM25 19.9902C25 20.1715 24.9344 20.3466 24.8152 20.4832C24.6961 20.6198 24.5316 20.7086 24.352 20.7332L24.25 20.7402H15.75C15.56 20.7402 15.3771 20.668 15.2382 20.5383C15.0994 20.4085 15.0149 20.2309 15.002 20.0414C14.989 19.8518 15.0485 19.6643 15.1684 19.5169C15.2884 19.3695 15.4597 19.2731 15.648 19.2472L15.75 19.2402H24.25C24.4489 19.2402 24.6397 19.3193 24.7803 19.4599C24.921 19.6006 25 19.7913 25 19.9902Z" fill="#FFAB00"/>
</svg>
