<svg width="40" height="40" viewBox="0 0 40 40" fill="none" xmlns="http://www.w3.org/2000/svg">
<circle cx="20" cy="20" r="20" fill="#FF5630" fill-opacity="0.14"/>
<path d="M27 11C27.5304 11 28.0391 11.2107 28.4142 11.5858C28.7893 11.9609 29 12.4696 29 13V27C29 27.5304 28.7893 28.0391 28.4142 28.4142C28.0391 28.7893 27.5304 29 27 29H13C12.4696 29 11.9609 28.7893 11.5858 28.4142C11.2107 28.0391 11 27.5304 11 27V13C11 12.4696 11.2107 11.9609 11.5858 11.5858C11.9609 11.2107 12.4696 11 13 11H27ZM27 17H13V27H27V17ZM16.5 23C16.7652 23 17.0196 23.1054 17.2071 23.2929C17.3946 23.4804 17.5 23.7348 17.5 24C17.5 24.2652 17.3946 24.5196 17.2071 24.7071C17.0196 24.8946 16.7652 25 16.5 25H15.5C15.2348 25 14.9804 24.8946 14.7929 24.7071C14.6054 24.5196 14.5 24.2652 14.5 24C14.5 23.7348 14.6054 23.4804 14.7929 23.2929C14.9804 23.1054 15.2348 23 15.5 23H16.5ZM20.5 23C20.7549 23.0003 21 23.0979 21.1854 23.2728C21.3707 23.4478 21.4822 23.687 21.4972 23.9414C21.5121 24.1958 21.4293 24.4464 21.2657 24.6418C21.1021 24.8373 20.8701 24.9629 20.617 24.993L20.5 25H19.5C19.2451 24.9997 19 24.9021 18.8146 24.7272C18.6293 24.5522 18.5178 24.313 18.5028 24.0586C18.4879 23.8042 18.5707 23.5536 18.7343 23.3582C18.8979 23.1627 19.1299 23.0371 19.383 23.007L19.5 23H20.5ZM16.5 19C16.7549 19.0003 17 19.0979 17.1854 19.2728C17.3707 19.4478 17.4822 19.687 17.4972 19.9414C17.5121 20.1958 17.4293 20.4464 17.2657 20.6418C17.1021 20.8373 16.8701 20.9629 16.617 20.993L16.5 21H15.5C15.2451 20.9997 15 20.9021 14.8146 20.7272C14.6293 20.5522 14.5178 20.313 14.5028 20.0586C14.4879 19.8042 14.5707 19.5536 14.7343 19.3582C14.8979 19.1627 15.1299 19.0371 15.383 19.007L15.5 19H16.5ZM20.5 19C20.7652 19 21.0196 19.1054 21.2071 19.2929C21.3946 19.4804 21.5 19.7348 21.5 20C21.5 20.2652 21.3946 20.5196 21.2071 20.7071C21.0196 20.8946 20.7652 21 20.5 21H19.5C19.2348 21 18.9804 20.8946 18.7929 20.7071C18.6054 20.5196 18.5 20.2652 18.5 20C18.5 19.7348 18.6054 19.4804 18.7929 19.2929C18.9804 19.1054 19.2348 19 19.5 19H20.5ZM24.5 19C24.7549 19.0003 25 19.0979 25.1854 19.2728C25.3707 19.4478 25.4822 19.687 25.4972 19.9414C25.5121 20.1958 25.4293 20.4464 25.2657 20.6418C25.1021 20.8373 24.8701 20.9629 24.617 20.993L24.5 21H23.5C23.2451 20.9997 23 20.9021 22.8146 20.7272C22.6293 20.5522 22.5178 20.313 22.5028 20.0586C22.4879 19.8042 22.5707 19.5536 22.7343 19.3582C22.8979 19.1627 23.1299 19.0371 23.383 19.007L23.5 19H24.5ZM27 13H13V15H27V13Z" fill="#FF5630"/>
</svg>
