<svg width="41" height="40" viewBox="0 0 41 40" fill="none" xmlns="http://www.w3.org/2000/svg">
<circle cx="20.5" cy="20" r="20" fill="#FFF8EB"/>
<path fill-rule="evenodd" clip-rule="evenodd" d="M20.5001 21.8333H17.7501C17.2441 21.8333 16.8334 21.4226 16.8334 20.9166C16.8334 20.4106 17.2441 19.9999 17.7501 19.9999H20.5001C21.0061 19.9999 21.4167 20.4106 21.4167 20.9166C21.4167 21.4226 21.0061 21.8333 20.5001 21.8333ZM16.8334 24.5833C16.8334 24.0773 17.2441 23.6666 17.7501 23.6666H23.2501C23.757 23.6666 24.1667 24.0773 24.1667 24.5833C24.1667 25.0893 23.757 25.4999 23.2501 25.4999H17.7501C17.2441 25.4999 16.8334 25.0893 16.8334 24.5833ZM25.4907 27.3333H15.5091C15.2286 27.3333 15.0003 27.1279 15.0003 26.8749V13.1249C15.0003 12.8719 15.2286 12.6666 15.5091 12.6666H20.5003V15.5541C20.5003 16.9951 21.6159 18.1666 22.9882 18.1666H26.0003V26.8749C26.0003 27.1279 25.7721 27.3333 25.4907 27.3333ZM22.3337 13.5631L24.8472 16.3333H22.9882C22.627 16.3333 22.3337 15.984 22.3337 15.5541V13.5631ZM27.5953 16.6339L22.605 11.1339C22.4308 10.9423 22.1852 10.8333 21.9257 10.8333H15.5091C14.2175 10.8333 13.167 11.8618 13.167 13.1249V26.8749C13.167 28.1381 14.2175 29.1666 15.5091 29.1666H25.4907C26.7822 29.1666 27.8337 28.1381 27.8337 26.8749V17.2499C27.8337 17.0217 27.7484 16.8026 27.5953 16.6339Z" fill="#FFAB00"/>
<mask id="mask0_168_7425" style="mask-type:luminance" maskUnits="userSpaceOnUse" x="13" y="10" width="15" height="20">
<path fill-rule="evenodd" clip-rule="evenodd" d="M20.5001 21.8333H17.7501C17.2441 21.8333 16.8334 21.4226 16.8334 20.9166C16.8334 20.4106 17.2441 19.9999 17.7501 19.9999H20.5001C21.0061 19.9999 21.4167 20.4106 21.4167 20.9166C21.4167 21.4226 21.0061 21.8333 20.5001 21.8333ZM16.8334 24.5833C16.8334 24.0773 17.2441 23.6666 17.7501 23.6666H23.2501C23.757 23.6666 24.1667 24.0773 24.1667 24.5833C24.1667 25.0893 23.757 25.4999 23.2501 25.4999H17.7501C17.2441 25.4999 16.8334 25.0893 16.8334 24.5833ZM25.4907 27.3333H15.5091C15.2286 27.3333 15.0003 27.1279 15.0003 26.8749V13.1249C15.0003 12.8719 15.2286 12.6666 15.5091 12.6666H20.5003V15.5541C20.5003 16.9951 21.6159 18.1666 22.9882 18.1666H26.0003V26.8749C26.0003 27.1279 25.7721 27.3333 25.4907 27.3333ZM22.3337 13.5631L24.8472 16.3333H22.9882C22.627 16.3333 22.3337 15.984 22.3337 15.5541V13.5631ZM27.5953 16.6339L22.605 11.1339C22.4308 10.9423 22.1852 10.8333 21.9257 10.8333H15.5091C14.2175 10.8333 13.167 11.8618 13.167 13.1249V26.8749C13.167 28.1381 14.2175 29.1666 15.5091 29.1666H25.4907C26.7822 29.1666 27.8337 28.1381 27.8337 26.8749V17.2499C27.8337 17.0217 27.7484 16.8026 27.5953 16.6339Z" fill="white"/>
</mask>
<g mask="url(#mask0_168_7425)">
<rect x="9.5" y="9" width="22" height="22" fill="#FFAB00"/>
</g>
</svg>
