<svg width="40" height="40" viewBox="0 0 40 40" fill="none" xmlns="http://www.w3.org/2000/svg">
<circle cx="20" cy="20" r="20" fill="#FFF1EE"/>
<path fill-rule="evenodd" clip-rule="evenodd" d="M19.8361 23.2138C19.991 23.2138 20.1468 23.2533 20.2871 23.3321L24.5835 25.7622V13.8895C24.5835 13.7053 24.4726 13.5833 24.4002 13.5833H15.6002C15.5268 13.5833 15.4168 13.7053 15.4168 13.8895V25.7145L19.364 23.3449C19.5097 23.2578 19.6729 23.2138 19.8361 23.2138ZM14.5002 28.25C14.3443 28.25 14.1885 28.2106 14.0482 28.1308C13.7613 27.9686 13.5835 27.6633 13.5835 27.3333V13.8895C13.5835 12.7098 14.4882 11.75 15.6002 11.75H24.4002C25.5121 11.75 26.4168 12.7098 26.4168 13.8895V27.3333C26.4168 27.6597 26.2436 27.9613 25.9622 28.1253C25.6798 28.2903 25.3333 28.2931 25.0492 28.1318L19.8498 25.1911L14.9713 28.1198C14.8265 28.206 14.6633 28.25 14.5002 28.25Z" fill="#FF5630"/>
<mask id="mask0_59_7764" style="mask-type:luminance" maskUnits="userSpaceOnUse" x="13" y="11" width="14" height="18">
<path fill-rule="evenodd" clip-rule="evenodd" d="M19.8361 23.2138C19.991 23.2138 20.1468 23.2533 20.2871 23.3321L24.5835 25.7622V13.8895C24.5835 13.7053 24.4726 13.5833 24.4002 13.5833H15.6002C15.5268 13.5833 15.4168 13.7053 15.4168 13.8895V25.7145L19.364 23.3449C19.5097 23.2578 19.6729 23.2138 19.8361 23.2138ZM14.5002 28.25C14.3443 28.25 14.1885 28.2106 14.0482 28.1308C13.7613 27.9686 13.5835 27.6633 13.5835 27.3333V13.8895C13.5835 12.7098 14.4882 11.75 15.6002 11.75H24.4002C25.5121 11.75 26.4168 12.7098 26.4168 13.8895V27.3333C26.4168 27.6597 26.2436 27.9613 25.9622 28.1253C25.6798 28.2903 25.3333 28.2931 25.0492 28.1318L19.8498 25.1911L14.9713 28.1198C14.8265 28.206 14.6633 28.25 14.5002 28.25Z" fill="white"/>
</mask>
<g mask="url(#mask0_59_7764)">
<rect x="9" y="9" width="22" height="22" fill="#FF5630"/>
</g>
</svg>
