<svg width="40" height="41" viewBox="0 0 40 41" fill="none" xmlns="http://www.w3.org/2000/svg">
<circle cx="20" cy="20.5" r="20" fill="#078DEE" fill-opacity="0.14"/>
<path d="M13.2778 27.494C12.6727 26.925 12.1882 26.2403 11.8528 25.4805C11.5174 24.7207 11.3381 23.9013 11.3254 23.0709C11.3128 22.2405 11.4671 21.416 11.7791 20.6463C12.0912 19.8766 12.5547 19.1775 13.1421 18.5904L19.3754 12.357C19.7862 11.9376 20.2761 11.6038 20.8167 11.3749C21.3574 11.146 21.938 11.0266 22.5251 11.0235C23.1122 11.0204 23.694 11.1338 24.237 11.357C24.78 11.5802 25.2734 11.9089 25.6885 12.324C26.1037 12.7391 26.4324 13.2324 26.6558 13.7754C26.8791 14.3183 26.9925 14.9002 26.9895 15.4873C26.9865 16.0744 26.8672 16.655 26.6384 17.1957C26.4095 17.7363 26.0758 18.2263 25.6564 18.6371L19.4231 24.8705C18.9129 25.3575 18.2346 25.6293 17.5293 25.6293C16.8239 25.6293 16.1456 25.3575 15.6354 24.8705C15.134 24.3675 14.8525 23.6863 14.8525 22.9762C14.8525 22.266 15.134 21.5848 15.6354 21.0819L20.6175 16.0998C20.7904 15.9328 21.0219 15.8404 21.2623 15.8425C21.5026 15.8446 21.7326 15.941 21.9025 16.111C22.0725 16.2809 22.1689 16.5108 22.171 16.7512C22.173 16.9915 22.0807 17.2231 21.9137 17.396L16.9298 22.378C16.773 22.5368 16.6851 22.7508 16.6851 22.9739C16.6851 23.1969 16.773 23.411 16.9298 23.5697C17.0907 23.7222 17.3039 23.8072 17.5256 23.8072C17.7473 23.8072 17.9605 23.7222 18.1214 23.5697L24.3548 17.3364C24.8319 16.8449 25.0966 16.1855 25.0915 15.5005C25.0865 14.8155 24.8121 14.16 24.3278 13.6756C23.8434 13.1913 23.1879 12.9169 22.5029 12.9119C21.8179 12.9068 21.1585 13.1715 20.667 13.6486L14.4337 19.882C14.0196 20.2953 13.6927 20.7877 13.4725 21.3298C13.2523 21.8719 13.1433 22.4527 13.1518 23.0377C13.1604 23.6228 13.2864 24.2002 13.5223 24.7356C13.7582 25.271 14.0993 25.7536 14.5253 26.1547C15.3977 26.924 16.5332 27.3273 17.6954 27.2807C18.8576 27.2341 19.9571 26.7412 20.7651 25.9045L28.0838 18.5858C28.1683 18.4982 28.2695 18.4284 28.3813 18.3804C28.4931 18.3323 28.6134 18.307 28.7351 18.306C28.8569 18.3049 28.9776 18.3281 29.0902 18.3742C29.2029 18.4203 29.3052 18.4884 29.3913 18.5744C29.4774 18.6605 29.5454 18.7629 29.5915 18.8755C29.6376 18.9882 29.6608 19.1089 29.6597 19.2306C29.6587 19.3523 29.6334 19.4726 29.5854 19.5844C29.5373 19.6963 29.4675 19.7974 29.3799 19.882L22.0613 27.2006C20.84 28.4238 19.1835 29.1128 17.455 29.1165C15.9064 29.1296 14.4115 28.549 13.2778 27.494Z" fill="#078DEE"/>
</svg>
