<svg width="24" height="24" viewBox="0 0 24 24" fill="none" xmlns="http://www.w3.org/2000/svg">
<path d="M1.99994 12C1.99994 8.22876 1.99994 6.34315 3.17151 5.17157C4.34309 4 6.2287 4 9.99994 4H13.9999C17.7711 4 19.6568 4 20.8283 5.17157C21.9999 6.34315 21.9999 8.22876 21.9999 12V14C21.9999 17.7712 21.9999 19.6569 20.8283 20.8284C19.6568 22 17.7711 22 13.9999 22H9.99994C6.2287 22 4.34309 22 3.17151 20.8284C1.99994 19.6569 1.99994 17.7712 1.99994 14V12Z" stroke="#637381" stroke-width="1.5"/>
<path d="M7.00006 4V2.5" stroke="#637381" stroke-width="1.5" stroke-linecap="round"/>
<path d="M16.9999 4V2.5" stroke="#637381" stroke-width="1.5" stroke-linecap="round"/>
<path d="M2.50006 9H21.5001" stroke="#637381" stroke-width="1.5" stroke-linecap="round"/>
<path d="M18.0001 17C18.0001 17.5523 17.5524 18 17.0001 18C16.4478 18 16.0001 17.5523 16.0001 17C16.0001 16.4477 16.4478 16 17.0001 16C17.5524 16 18.0001 16.4477 18.0001 17Z" fill="#637381"/>
<path d="M18.0001 13C18.0001 13.5523 17.5524 14 17.0001 14C16.4478 14 16.0001 13.5523 16.0001 13C16.0001 12.4477 16.4478 12 17.0001 12C17.5524 12 18.0001 12.4477 18.0001 13Z" fill="#637381"/>
<path d="M12.9999 17C12.9999 17.5523 12.5522 18 11.9999 18C11.4476 18 10.9999 17.5523 10.9999 17C10.9999 16.4477 11.4476 16 11.9999 16C12.5522 16 12.9999 16.4477 12.9999 17Z" fill="#637381"/>
<path d="M12.9999 13C12.9999 13.5523 12.5522 14 11.9999 14C11.4476 14 10.9999 13.5523 10.9999 13C10.9999 12.4477 11.4476 12 11.9999 12C12.5522 12 12.9999 12.4477 12.9999 13Z" fill="#637381"/>
<path d="M8 17C8 17.5523 7.55228 18 7 18C6.44772 18 6 17.5523 6 17C6 16.4477 6.44772 16 7 16C7.55228 16 8 16.4477 8 17Z" fill="#637381"/>
<path d="M8 13C8 13.5523 7.55228 14 7 14C6.44772 14 6 13.5523 6 13C6 12.4477 6.44772 12 7 12C7.55228 12 8 12.4477 8 13Z" fill="#637381"/>
</svg>
