<svg width="40" height="40" viewBox="0 0 40 40" fill="none" xmlns="http://www.w3.org/2000/svg">
<rect width="40" height="40" fill="white"/>
<path d="M13.4194 14.5807C13.4194 15.222 13.9394 15.7419 14.5807 15.7419C15.2221 15.7419 15.742 15.222 15.742 14.5807H13.4194ZM14.5807 14.2199H15.742L15.742 14.2134L14.5807 14.2199ZM19.5836 9.16131V8L19.5771 8.00003L19.5836 9.16131ZM25.8359 9.16131L25.8424 8.00002H25.8359V9.16131ZM30.8387 14.2199L29.6774 14.2134V14.2199H30.8387ZM30.8387 20.3608H29.6774L29.6776 20.3673L30.8387 20.3608ZM25.8359 25.4194V26.5806H25.8424L25.8359 25.4194ZM25.4193 24.2581C24.778 24.2581 24.2581 24.778 24.2581 25.4194C24.2581 26.0607 24.778 26.5806 25.4193 26.5806V24.2581ZM14.5807 15.7419C15.2221 15.7419 15.742 15.222 15.742 14.5807C15.742 13.9393 15.2221 13.4194 14.5807 13.4194V15.7419ZM14.1642 14.5807V13.4194L14.1578 13.4194L14.1642 14.5807ZM9.16137 19.6392H10.3227L10.3226 19.6327L9.16137 19.6392ZM9.16137 25.7817L10.3227 25.7877V25.7817H9.16137ZM14.1642 30.8387L14.1578 32H14.1642V30.8387ZM20.4165 30.8387V32H20.423L20.4165 30.8387ZM25.4193 25.7801H24.2581L24.2582 25.7866L25.4193 25.7801ZM26.5806 25.4194C26.5806 24.778 26.0608 24.2581 25.4193 24.2581C24.778 24.2581 24.2581 24.778 24.2581 25.4194H26.5806ZM14.5807 13.4194C13.9394 13.4194 13.4194 13.9393 13.4194 14.5807C13.4194 15.222 13.9394 15.7419 14.5807 15.7419V13.4194ZM20.4167 14.5807L20.423 13.4194H20.4167V14.5807ZM25.4195 19.6392L24.2582 19.6327V19.6392H25.4195ZM24.2581 25.4194C24.2581 26.0607 24.778 26.5806 25.4193 26.5806C26.0607 26.5806 26.5806 26.0607 26.5806 25.4194H24.2581ZM15.742 14.5807L15.742 14.2199H13.4194V14.5807H15.742ZM15.742 14.2134C15.7363 13.1872 16.1385 12.2007 16.8602 11.471L15.2088 9.83786C14.054 11.0055 13.4103 12.5841 13.4194 14.2263L15.742 14.2134ZM16.8602 11.471C17.5817 10.7414 18.5637 10.3282 19.59 10.3226L19.5771 8.00003C17.9349 8.0091 16.3636 8.67019 15.2088 9.83786L16.8602 11.471ZM19.5836 10.3226H25.8359V8.00002L19.5836 8V10.3226ZM25.8295 10.3226C26.8558 10.3282 27.8378 10.7414 28.5593 11.471L30.2107 9.83786C29.0559 8.67019 27.4846 8.00909 25.8424 8.00002L25.8295 10.3226ZM28.5593 11.471C29.281 12.2007 29.683 13.1872 29.6774 14.2134L32 14.2263C32.0091 12.5841 31.3655 11.0055 30.2107 9.83786L28.5593 11.471ZM29.6774 14.2199V20.3608H32V14.2199H29.6774ZM29.6776 20.3673C29.6831 21.3934 29.281 22.3799 28.5593 23.1096L30.2107 24.7429C31.3655 23.5751 32.0091 21.9965 32 20.3543L29.6776 20.3673ZM28.5593 23.1096C27.8378 23.8392 26.8558 24.2523 25.8295 24.2581L25.8424 26.5806C27.4846 26.5715 29.0559 25.9105 30.2107 24.7429L28.5593 23.1096ZM25.8359 24.2581H25.4193V26.5806H25.8359V24.2581ZM14.5807 13.4194L14.1642 13.4194V15.7419H14.5807V13.4194ZM14.1578 13.4194C12.5156 13.4285 10.9442 14.0895 9.78941 15.2572L11.4408 16.8904C12.1624 16.1607 13.1444 15.7476 14.1706 15.7419L14.1578 13.4194ZM9.78941 15.2572C8.63461 16.4249 7.99098 18.0035 8.0001 19.6457L10.3226 19.6327C10.3169 18.6066 10.7192 17.6201 11.4408 16.8904L9.78941 15.2572ZM8.00008 19.6392V25.7817H10.3227L10.3227 19.6392H8.00008ZM8.0001 25.7756C7.98215 29.1946 10.7388 31.9811 14.1578 32L14.1706 29.6774C12.0341 29.6657 10.3114 27.9243 10.3227 25.7877L8.0001 25.7756ZM14.1642 32H20.4165V29.6774H14.1642V32ZM20.423 32C22.0652 31.9909 23.6365 31.3299 24.7913 30.1622L23.14 28.529C22.4184 29.2586 21.4364 29.6717 20.4102 29.6774L20.423 32ZM24.7913 30.1622C25.9461 28.9944 26.5898 27.4158 26.5806 25.7736L24.2582 25.7866C24.2638 26.8127 23.8617 27.7992 23.14 28.529L24.7913 30.1622ZM26.5806 25.7801V25.4194H24.2581V25.7801H26.5806ZM14.5807 15.7419H20.4167V13.4194H14.5807V15.7419ZM20.4102 15.7419C21.4364 15.7476 22.4184 16.1607 23.14 16.8904L24.7913 15.2572C23.6365 14.0895 22.0652 13.4284 20.423 13.4194L20.4102 15.7419ZM23.14 16.8904C23.8617 17.6201 24.2638 18.6066 24.2582 19.6327L26.5806 19.6457C26.5898 18.0035 25.9461 16.4249 24.7913 15.2572L23.14 16.8904ZM24.2582 19.6392L24.2581 25.4194H26.5806L26.5808 19.6392H24.2582Z" fill="#141A21"/>
</svg>
