<svg width="40" height="40" viewBox="0 0 40 40" fill="none" xmlns="http://www.w3.org/2000/svg">
<circle cx="20" cy="20" r="20" fill="#078DEE" fill-opacity="0.14"/>
<path d="M22.75 29.8543H17.25C12.2725 29.8543 10.1458 27.7277 10.1458 22.7502V17.2502C10.1458 12.2727 12.2725 10.146 17.25 10.146H21.8333C22.2091 10.146 22.5208 10.4577 22.5208 10.8335C22.5208 11.2093 22.2091 11.521 21.8333 11.521H17.25C13.0241 11.521 11.5208 13.0243 11.5208 17.2502V22.7502C11.5208 26.976 13.0241 28.4793 17.25 28.4793H22.75C26.9758 28.4793 28.4791 26.976 28.4791 22.7502V18.1668C28.4791 17.791 28.7908 17.4793 29.1666 17.4793C29.5425 17.4793 29.8541 17.791 29.8541 18.1668V22.7502C29.8541 27.7277 27.7275 29.8543 22.75 29.8543Z" fill="#078DEE"/>
<path d="M29.1666 18.8542H25.5C22.365 18.8542 21.1458 17.635 21.1458 14.5V10.8334C21.1458 10.5584 21.3108 10.3017 21.5675 10.2009C21.8241 10.0909 22.1175 10.155 22.3191 10.3475L29.6525 17.6809C29.845 17.8734 29.9091 18.1759 29.7991 18.4325C29.6891 18.6892 29.4416 18.8542 29.1666 18.8542ZM22.5208 12.4925V14.5C22.5208 16.865 23.135 17.4792 25.5 17.4792H27.5075L22.5208 12.4925Z" fill="#078DEE"/>
<path d="M20.9167 21.6042H15.4167C15.0409 21.6042 14.7292 21.2926 14.7292 20.9167C14.7292 20.5409 15.0409 20.2292 15.4167 20.2292H20.9167C21.2925 20.2292 21.6042 20.5409 21.6042 20.9167C21.6042 21.2926 21.2925 21.6042 20.9167 21.6042Z" fill="#078DEE"/>
<path d="M19.0834 25.271H15.4167C15.0409 25.271 14.7292 24.9593 14.7292 24.5835C14.7292 24.2077 15.0409 23.896 15.4167 23.896H19.0834C19.4592 23.896 19.7709 24.2077 19.7709 24.5835C19.7709 24.9593 19.4592 25.271 19.0834 25.271Z" fill="#078DEE"/>
</svg>
