<svg width="26" height="26" viewBox="0 0 26 26" fill="none" xmlns="http://www.w3.org/2000/svg">
<path d="M9.87504 18.5729C9.44796 18.5729 9.09379 18.2188 9.09379 17.7917V13.4271L8.34379 14.1771C8.04171 14.4792 7.54171 14.4792 7.23962 14.1771C6.93754 13.875 6.93754 13.375 7.23962 13.0729L9.32296 10.9896C9.54171 10.7708 9.88546 10.6979 10.1771 10.8229C10.4688 10.9375 10.6563 11.2292 10.6563 11.5417V17.7917C10.6563 18.2188 10.3021 18.5729 9.87504 18.5729Z" fill="#078DEE"/>
<path d="M11.9584 14.4062C11.7604 14.4062 11.5625 14.3333 11.4063 14.177L9.32294 12.0937C9.02085 11.7916 9.02085 11.2916 9.32294 10.9895C9.62502 10.6874 10.125 10.6874 10.4271 10.9895L12.5104 13.0728C12.8125 13.3749 12.8125 13.8749 12.5104 14.177C12.3542 14.3333 12.1563 14.4062 11.9584 14.4062Z" fill="#078DEE"/>
<path d="M16.125 23.7811H9.87504C4.21879 23.7811 1.80212 21.3644 1.80212 15.7082V9.45817C1.80212 3.80192 4.21879 1.38525 9.87504 1.38525H15.0834C15.5105 1.38525 15.8646 1.73942 15.8646 2.1665C15.8646 2.59359 15.5105 2.94775 15.0834 2.94775H9.87504C5.07296 2.94775 3.36462 4.65609 3.36462 9.45817V15.7082C3.36462 20.5103 5.07296 22.2186 9.87504 22.2186H16.125C20.9271 22.2186 22.6355 20.5103 22.6355 15.7082V10.4998C22.6355 10.0728 22.9896 9.71859 23.4167 9.71859C23.8438 9.71859 24.198 10.0728 24.198 10.4998V15.7082C24.198 21.3644 21.7813 23.7811 16.125 23.7811Z" fill="#078DEE"/>
<path d="M23.4167 11.2813H19.25C15.6875 11.2813 14.3021 9.89584 14.3021 6.33334V2.16668C14.3021 1.85418 14.4896 1.56251 14.7813 1.44793C15.073 1.32293 15.4063 1.39584 15.6355 1.61459L23.9688 9.94792C24.1875 10.1667 24.2605 10.5104 24.1355 10.8021C24.0105 11.0938 23.7292 11.2813 23.4167 11.2813ZM15.8646 4.05209V6.33334C15.8646 9.02084 16.5625 9.71876 19.25 9.71876H21.5313L15.8646 4.05209Z" fill="#078DEE"/>
</svg>
